<?xml version="1.0" encoding="UTF-8"?>
<svg version="1.1" xmlns="http://www.w3.org/2000/svg" width="1309" height="581">
<path d="M0 0 C431.97 0 863.94 0 1309 0 C1309 191.73 1309 383.46 1309 581 C877.03 581 445.06 581 0 581 C0 389.27 0 197.54 0 0 Z " fill="#FEFEFE" transform="translate(0,0)"/>
<path d="M0 0 C7.59 0 15.18 0 23 0 C23 43.23 23 86.46 23 131 C16.73 131 10.46 131 4 131 C3.67 127.37 3.34 123.74 3 120 C2.319375 120.70125 1.63875 121.4025 0.9375 122.125 C-9.07237413 132.13487413 -9.07237413 132.13487413 -15.1875 132.1875 C-20.75404118 132.09814942 -25.18751941 131.4672462 -29.625 127.875 C-40.17167665 115.10797037 -41.18720023 99.9261391 -41.18530273 83.83154297 C-41.18747995 81.76899273 -41.20565389 79.7069866 -41.22460938 77.64453125 C-41.28531927 63.55930616 -40.09595413 48.24909513 -29.85546875 37.59375 C-26.0320088 34.30959914 -22.57353677 33.14049435 -17.5 32.6875 C-12.22509295 33.15847384 -8.34245273 33.51241725 -4.6875 37.5625 C-4.130625 38.366875 -3.57375 39.17125 -3 40 C-2.01 40.495 -2.01 40.495 -1 41 C-0.67 27.47 -0.34 13.94 0 0 Z " fill="#0391E8" transform="translate(605,257)"/>
<path d="M0 0 C11.77514952 6.87823372 17.81626779 16.63311725 21.23046875 29.54296875 C22.97143608 36.65715575 23.1889206 43.332028 22.85546875 50.66796875 C14.93546875 50.66796875 7.01546875 50.66796875 -1.14453125 50.66796875 C-2.33203125 43.04296875 -2.33203125 43.04296875 -2.66870117 40.67724609 C-3.58682865 35.3471 -5.33750309 32.516442 -9.14453125 28.66796875 C-12.29298631 27.09374122 -15.73671197 26.99868532 -19.14453125 27.66796875 C-24.53510927 31.28262821 -25.70954301 34.76356686 -27.39453125 40.84277344 C-28.61900001 47.08788301 -28.73890039 53.22281809 -28.66601562 59.57080078 C-28.64447972 61.79829835 -28.66597815 64.02259667 -28.69140625 66.25 C-28.76650692 79.80082301 -28.76650692 79.80082301 -22.50976562 91.33251953 C-22.05923828 91.77321777 -21.60871094 92.21391602 -21.14453125 92.66796875 C-21.14453125 93.32796875 -21.14453125 93.98796875 -21.14453125 94.66796875 C-13.98141877 95.41515401 -13.98141877 95.41515401 -7.70703125 92.48046875 C-3.60296074 87.97600111 -1.82043077 84.39926541 -0.95703125 78.35546875 C-0.68890625 76.47859375 -0.42078125 74.60171875 -0.14453125 72.66796875 C7.44546875 72.66796875 15.03546875 72.66796875 22.85546875 72.66796875 C22.85546875 89.27586542 19.90995903 105.50349225 7.85546875 117.66796875 C5.32540969 119.7126095 2.7762455 121.24798638 -0.14453125 122.66796875 C-0.73492188 122.98507812 -1.3253125 123.3021875 -1.93359375 123.62890625 C-9.42843051 127.10523479 -19.05766787 126.84656112 -26.89453125 124.60546875 C-34.94635738 121.39978844 -41.6704226 116.72158427 -45.14453125 108.66796875 C-45.14453125 108.00796875 -45.14453125 107.34796875 -45.14453125 106.66796875 C-45.80453125 106.66796875 -46.46453125 106.66796875 -47.14453125 106.66796875 C-57.08079661 78.54794503 -59.45463321 46.79282336 -48.14453125 18.66796875 C-47.85191406 17.92546875 -47.55929687 17.18296875 -47.2578125 16.41796875 C-42.76452647 6.59849489 -35.10154394 1.28160057 -25.28515625 -2.40625 C-16.58890826 -4.96969624 -8.11395043 -3.82652616 0 0 Z " fill="#0491E8" transform="translate(920.14453125,264.33203125)"/>
<path d="M0 0 C6.36799699 6.24045485 10.79113416 12.74142078 13.203125 21.26953125 C13.70540639 22.99058366 14.25200434 24.69988477 14.859375 26.38671875 C17.38340055 33.58971619 17.29467245 40.42582672 17 48 C13.02084841 48.02886984 9.04172347 48.04675406 5.0625 48.0625 C3.35803711 48.07506836 3.35803711 48.07506836 1.61914062 48.08789062 C0.53955078 48.09111328 -0.54003906 48.09433594 -1.65234375 48.09765625 C-3.15269165 48.10551147 -3.15269165 48.10551147 -4.68334961 48.11352539 C-7 48 -7 48 -8 47 C-8.32381508 44.94230238 -8.60887747 42.87845123 -8.875 40.8125 C-10.1013959 32.49516985 -10.1013959 32.49516985 -15.25 26.125 C-18.79190675 24.67603815 -21.20244451 24.52530556 -25 25 C-30.02932742 27.45618316 -31.40588016 31.50177294 -33.16430664 36.52026367 C-34.67827907 42.82428034 -34.51355631 49.15407829 -34.41162109 55.60644531 C-34.37506306 57.99587866 -34.37060346 60.3837529 -34.37109375 62.7734375 C-34.331844 71.03776103 -33.93355413 78.91867825 -32 87 C-31.34 87 -30.68 87 -30 87 C-29.319375 88.2375 -29.319375 88.2375 -28.625 89.5 C-25.36518828 92.60458259 -24.14155025 92.33833265 -19.75 92.3125 C-17.83218481 92.23220869 -15.91470844 92.13547465 -14 92 C-13.731875 91.4225 -13.46375 90.845 -13.1875 90.25 C-12 88 -12 88 -10.44921875 86.203125 C-8.43440064 83.14016701 -8.24799411 80.36795105 -7.8125 76.75 C-7.544375 74.5225 -7.27625 72.295 -7 70 C0.92 70 8.84 70 17 70 C17 76.73673007 16.93626545 82.04057283 15.375 88.375 C15.2004126 89.10033936 15.0258252 89.82567871 14.84594727 90.57299805 C12.77674339 98.62325839 9.47194116 106.63831232 4 113 C3.34 113 2.68 113 2 113 C1.505 114.485 1.505 114.485 1 116 C-5.94513545 122.66733003 -15.22747933 122.54738281 -24.1940918 122.47827148 C-32.53769973 122.25027201 -38.02662599 120.73213344 -44.1875 114.9453125 C-51.28049847 107.40900163 -55.48774554 100.01136465 -57.75 89.9375 C-57.95753906 89.07833984 -58.16507812 88.21917969 -58.37890625 87.33398438 C-62.73804127 68.92718522 -62.3500622 49.47432014 -58.875 30.9375 C-58.68728027 29.89940186 -58.49956055 28.86130371 -58.30615234 27.79174805 C-56.00336235 16.71125385 -50.95182928 7.1078195 -42 0 C-29.87837459 -7.58152571 -12.11392552 -7.68799874 0 0 Z " fill="#0591E8" transform="translate(410,267)"/>
<path d="M0 0 C4.75322319 5.87162864 7.25732165 11.16705169 7.23852539 18.76074219 C7.23844986 19.78149841 7.23837433 20.80225464 7.23829651 21.85394287 C7.23313522 22.94886047 7.22797394 24.04377808 7.22265625 25.171875 C7.2212413 26.2982135 7.21982635 27.424552 7.21836853 28.58502197 C7.21277199 32.18170835 7.2002201 35.77833244 7.1875 39.375 C7.18248455 41.81380118 7.17792172 44.25260334 7.17382812 46.69140625 C7.1628037 52.66929208 7.14606898 58.64714159 7.125 64.625 C9.765 65.285 12.405 65.945 15.125 66.625 C15.125 73.885 15.125 81.145 15.125 88.625 C8.27082658 91.36666937 2.49385013 91.05969034 -4.75 90.125 C-8.65748902 88.24940527 -9.84383007 86.15481902 -11.83203125 82.40234375 C-12.75641548 80.45717654 -12.75641548 80.45717654 -14.875 79.625 C-15.12507812 80.21925781 -15.37515625 80.81351562 -15.6328125 81.42578125 C-17.04566153 83.92714604 -18.44411124 85.12006466 -20.75 86.8125 C-21.42804687 87.32167969 -22.10609375 87.83085937 -22.8046875 88.35546875 C-26.9913872 90.92278461 -30.96572818 90.78663676 -35.8125 90.8125 C-37.62041016 90.83376953 -37.62041016 90.83376953 -39.46484375 90.85546875 C-44.50115794 90.51509929 -48.11592954 88.99852477 -51.875 85.625 C-56.37746537 78.89909494 -56.29315833 70.79975949 -56.375 63 C-56.39336914 62.02256836 -56.41173828 61.04513672 -56.43066406 60.03808594 C-56.36196147 51.90644748 -54.22842075 44.20396724 -48.69140625 37.97265625 C-41.16725146 32.39021883 -31.21199753 30.47008083 -22.0625 30.5625 C-20.90105469 30.57152344 -19.73960937 30.58054687 -18.54296875 30.58984375 C-17.66253906 30.60144531 -16.78210938 30.61304688 -15.875 30.625 C-16.15668297 28.66520573 -16.45066717 26.70717622 -16.75 24.75 C-16.91242187 23.65945313 -17.07484375 22.56890625 -17.2421875 21.4453125 C-17.63756513 18.50567286 -17.63756513 18.50567286 -19.875 16.625 C-25.09896933 16.06776944 -25.09896933 16.06776944 -29.8125 17.8125 C-31.23610668 20.01479102 -31.23610668 20.01479102 -31.875 24.625 C-39.465 24.625 -47.055 24.625 -54.875 24.625 C-54.875 7.29450915 -54.875 7.29450915 -47.5 -0.375 C-35.49201223 -11.92907758 -12.13906421 -10.02792261 0 0 Z " fill="#0591E8" transform="translate(731.875,298.375)"/>
<path d="M0 0 C10.14270448 10.79472724 7.9272017 27.94442903 7.95825195 41.59619141 C7.9814278 43.99400029 8.00679947 46.39178902 8.03442383 48.78955078 C8.09687349 54.62093958 8.13212998 60.45199474 8.14575195 66.28369141 C10.12575195 66.28369141 12.10575195 66.28369141 14.14575195 66.28369141 C14.14575195 73.54369141 14.14575195 80.80369141 14.14575195 88.28369141 C6.83832295 91.41544669 2.34809178 92.81916173 -5.10424805 90.09619141 C-8.14212219 88.09395617 -10.49704609 86.05687018 -12.85424805 83.28369141 C-12.85424805 82.29369141 -12.85424805 81.30369141 -12.85424805 80.28369141 C-15.50065354 81.79592312 -17.85623879 83.28541313 -20.16674805 85.28369141 C-27.43718121 90.69424632 -35.02998281 91.15368939 -43.85424805 90.28369141 C-47.71491465 89.15346727 -49.6716556 87.83044625 -52.04174805 84.59619141 C-52.53030273 83.95294922 -53.01885742 83.30970703 -53.5222168 82.64697266 C-56.87583878 76.69699818 -57.21274563 70.68600895 -57.16674805 64.03369141 C-57.15937622 62.77842651 -57.15937622 62.77842651 -57.15185547 61.49780273 C-57.00497904 53.71485818 -56.36900956 46.15426398 -51.47924805 39.78369141 C-41.67279008 30.44420763 -28.71154076 30.09368215 -15.85424805 30.28369141 C-15.9141621 28.32450173 -16.00291943 26.36617612 -16.10424805 24.40869141 C-16.1506543 23.31814453 -16.19706055 22.22759766 -16.24487305 21.10400391 C-16.55072028 18.20782853 -16.55072028 18.20782853 -18.6472168 16.92041016 C-22.27469036 15.87390008 -25.06517943 15.98297167 -28.85424805 16.28369141 C-31.97235726 18.29537477 -31.90871554 19.50156139 -32.85424805 23.28369141 C-40.11424805 23.28369141 -47.37424805 23.28369141 -54.85424805 23.28369141 C-54.85424805 5.97001216 -54.85424805 5.97001216 -47.97924805 -1.21630859 C-36.17139956 -12.51479891 -11.79366008 -10.31996569 0 0 Z " fill="#0491E8" transform="translate(491.854248046875,298.71630859375)"/>
<path d="M0 0 C0.79857422 -0.01160156 1.59714844 -0.02320313 2.41992188 -0.03515625 C8.07994941 -0.00747885 12.23813756 1.14992073 17.4375 3.375 C18.46875 3.725625 19.5 4.07625 20.5625 4.4375 C26.52042016 8.45262011 29.36315492 15.14051762 31.0111084 21.970047 C31.84002566 26.64534326 31.79957191 31.35703091 31.8515625 36.09375 C31.87092865 37.19223267 31.8902948 38.29071533 31.9102478 39.42248535 C31.96968863 42.90657967 32.01628667 46.39070766 32.0625 49.875 C32.10071244 52.24740968 32.13976605 54.61980597 32.1796875 56.9921875 C32.27536078 62.78633885 32.36051069 68.58057187 32.4375 74.375 C34.4175 74.375 36.3975 74.375 38.4375 74.375 C38.4375 81.305 38.4375 88.235 38.4375 95.375 C31.81548349 98.68600826 27.65477613 99.27592199 20.4375 98.375 C16.45094681 96.41669317 13.68053052 94.23799701 11.4375 90.375 C11.4375 89.385 11.4375 88.395 11.4375 87.375 C10.71046875 88.06335938 10.71046875 88.06335938 9.96875 88.765625 C1.35948479 96.64641393 -4.13052631 98.82080616 -15.9765625 98.80859375 C-19.83870828 98.34160227 -22.27304876 97.42550464 -25.5625 95.375 C-27.24784791 92.96736012 -28.39659235 91.0125422 -29.5625 88.375 C-29.86285156 87.74980469 -30.16320312 87.12460937 -30.47265625 86.48046875 C-34.68994958 76.22165754 -33.57402824 63.47777811 -29.94921875 53.2265625 C-26.90526759 46.96716997 -22.56364514 42.80086028 -16 40.4375 C-7.85006553 38.2789435 0.05435889 38.26154395 8.4375 38.375 C8.32320603 36.60344346 8.19566963 34.83273771 8.0625 33.0625 C7.95808594 31.58330078 7.95808594 31.58330078 7.8515625 30.07421875 C7.59884528 27.15971567 7.59884528 27.15971567 5.4375 24.375 C3.11099535 23.85904995 3.11099535 23.85904995 0.5 23.9375 C-0.37527344 23.91816406 -1.25054688 23.89882813 -2.15234375 23.87890625 C-4.69447073 24.16356691 -4.69447073 24.16356691 -6.31640625 26.21484375 C-7.69441838 28.43722967 -7.69441838 28.43722967 -8.5625 31.375 C-15.8225 31.375 -23.0825 31.375 -30.5625 31.375 C-30.5625 15.33211061 -30.5625 15.33211061 -24.83203125 8.23046875 C-17.71968847 1.48722958 -9.55817252 -0.13953537 0 0 Z " fill="#0591E8" transform="translate(983.5625,290.625)"/>
<path d="M0 0 C9.14471287 6.84365714 12.35034477 18.01572519 14.05078125 28.78515625 C14.05078125 35.71515625 14.05078125 42.64515625 14.05078125 49.78515625 C-0.79921875 49.78515625 -15.64921875 49.78515625 -30.94921875 49.78515625 C-29.2490268 60.90722833 -29.2490268 60.90722833 -22.94921875 69.78515625 C-20.6776062 70.35839432 -20.6776062 70.35839432 -18.26171875 70.47265625 C-17.45347656 70.53839844 -16.64523437 70.60414063 -15.8125 70.671875 C-15.19761719 70.70925781 -14.58273437 70.74664062 -13.94921875 70.78515625 C-13.66046875 70.16640625 -13.37171875 69.54765625 -13.07421875 68.91015625 C-11.94921875 66.78515625 -11.94921875 66.78515625 -9.94921875 64.78515625 C-9.28921875 62.14515625 -8.62921875 59.50515625 -7.94921875 56.78515625 C-1.01921875 56.78515625 5.91078125 56.78515625 13.05078125 56.78515625 C13.54033449 67.31055087 12.54502198 74.90488247 5.67578125 83.16015625 C0.08457944 89.07323961 -5.92010575 92.69513398 -14.15625 93.12109375 C-25.359385 93.34336859 -32.95492916 92.73095308 -41.44921875 84.84765625 C-44.37781716 81.92486855 -45.43354764 79.90336304 -45.94921875 75.78515625 C-46.93921875 75.45515625 -47.92921875 75.12515625 -48.94921875 74.78515625 C-49.15417969 73.72554688 -49.35914063 72.6659375 -49.5703125 71.57421875 C-49.84229541 70.18616803 -50.11443919 68.79814881 -50.38671875 67.41015625 C-50.5887793 66.36214844 -50.5887793 66.36214844 -50.79492188 65.29296875 C-51.52646095 61.42886891 -51.52646095 61.42886891 -52.94921875 57.78515625 C-54.35108756 41.20938844 -54.92487216 19.21296337 -44.38671875 5.22265625 C-42.6953125 3.40625 -42.6953125 3.40625 -40.94921875 1.78515625 C-40.29566406 1.09035156 -39.64210938 0.39554687 -38.96875 -0.3203125 C-29.12080544 -9.5587131 -10.35078053 -6.45108766 0 0 Z " fill="#0491E8" transform="translate(1131.94921875,296.21484375)"/>
<path d="M0 0 C5.67541 4.29173566 8.45487594 9.06616308 10.5 15.8125 C10.72042969 16.46927734 10.94085937 17.12605469 11.16796875 17.80273438 C13.00358716 23.70293641 12.75 27.47058475 12.75 34.125 C5.16 34.125 -2.43 34.125 -10.25 34.125 C-10.67317708 31.09765625 -11.09635417 28.0703125 -11.51953125 25.04296875 C-12.27584218 22.02176948 -12.69696851 20.85485778 -15.25 19.125 C-21.60931707 18.56057164 -21.60931707 18.56057164 -27.25 21.125 C-27.58 22.115 -27.91 23.105 -28.25 24.125 C-28.91 24.125 -29.57 24.125 -30.25 24.125 C-30.37483978 28.64151109 -30.4649125 33.15707334 -30.5246582 37.67480469 C-30.54959759 39.2072095 -30.58356266 40.73949792 -30.62719727 42.27148438 C-31.12293957 55.5550569 -31.12293957 55.5550569 -25.25 67.125 C-22.42761623 68.51856645 -22.42761623 68.51856645 -19.4375 68.25 C-18.46167969 68.25257813 -17.48585938 68.25515625 -16.48046875 68.2578125 C-15.74441406 68.21398437 -15.00835938 68.17015625 -14.25 68.125 C-13.59 66.805 -12.93 65.485 -12.25 64.125 C-11.59 64.125 -10.93 64.125 -10.25 64.125 C-9.59 60.165 -8.93 56.205 -8.25 52.125 C-1.65 52.125 4.95 52.125 11.75 52.125 C11.79551094 56.12996307 11.79454277 60.12109986 11.75 64.125 C11.77900391 65.20974609 11.77900391 65.20974609 11.80859375 66.31640625 C11.59282819 73.20651971 6.81907364 77.91588417 2.75 83.125 C2.42 83.785 2.09 84.445 1.75 85.125 C1.09 85.125 0.43 85.125 -0.25 85.125 C-0.25 85.785 -0.25 86.445 -0.25 87.125 C-6.40958993 91.45837985 -12.00483351 92.61893776 -19.375 92.625 C-20.1263623 92.63080078 -20.87772461 92.63660156 -21.65185547 92.64257812 C-29.19092005 92.47757343 -35.49167927 90.59305588 -40.9375 85.1875 C-45.73827653 80.13013025 -47.98725448 74.63152929 -50.25 68.125 C-50.60191406 67.30515625 -50.95382812 66.4853125 -51.31640625 65.640625 C-53.97126033 58.48695961 -53.43360955 50.82495691 -53.4375 43.3125 C-53.44974609 42.07951172 -53.46199219 40.84652344 -53.47460938 39.57617188 C-53.48546709 32.79733948 -53.11606204 26.6488225 -51.25 20.125 C-51.01539063 19.18269531 -50.78078125 18.24039062 -50.5390625 17.26953125 C-48.05425063 8.54345663 -43.38432479 0.72447983 -35.359375 -3.984375 C-23.87937771 -8.62895406 -9.92088716 -7.02427777 0 0 Z " fill="#0491E8" transform="translate(805.25,296.875)"/>
<path d="M0 0 C2.45492442 1.67678568 4.82803838 3.35727657 7.09765625 5.27734375 C7.09765625 5.60734375 7.09765625 5.93734375 7.09765625 6.27734375 C6.50863525 6.28668945 5.91961426 6.29603516 5.31274414 6.30566406 C2.59442609 6.3599825 -0.12228223 6.44350215 -2.83984375 6.52734375 C-3.76603516 6.54152344 -4.69222656 6.55570313 -5.64648438 6.5703125 C-14.63082814 6.88555263 -21.77076532 9.7665786 -28.90234375 15.27734375 C-30.61374844 17.23919791 -32.281077 19.24036758 -33.90234375 21.27734375 C-35.10890625 22.39109375 -35.10890625 22.39109375 -36.33984375 23.52734375 C-45.31174579 33.15572642 -50.63732236 47.4179318 -52.43017578 60.35888672 C-52.93781053 63.49656295 -53.6792912 66.52888682 -54.4296875 69.6171875 C-55.98712696 76.829004 -56.36235589 83.83306786 -56.29345703 91.18139648 C-56.27737572 93.21080964 -56.29341287 95.23822458 -56.3125 97.26757812 C-56.33927987 114.17180032 -52.42782146 130.65903609 -44.953125 145.83984375 C-43.88344962 148.32117251 -43.33463536 150.61708771 -42.90234375 153.27734375 C-42.24234375 153.27734375 -41.58234375 153.27734375 -40.90234375 153.27734375 C-39.38671875 155.0703125 -39.38671875 155.0703125 -37.65234375 157.46484375 C-33.29560666 163.17800827 -29.60016031 167.5718255 -22.1484375 168.98046875 C-21.03662109 169.12742187 -21.03662109 169.12742187 -19.90234375 169.27734375 C-18.68224609 169.45523438 -18.68224609 169.45523438 -17.4375 169.63671875 C-8.84574337 170.29277065 -1.99880006 166.80681031 5.09765625 162.27734375 C6.77956407 160.6260589 8.45001863 158.96282464 10.09765625 157.27734375 C10.75765625 157.27734375 11.41765625 157.27734375 12.09765625 157.27734375 C12.34515625 156.65859375 12.59265625 156.03984375 12.84765625 155.40234375 C14.30394264 152.92665688 15.47578131 152.32609373 18.09765625 151.27734375 C14.34765625 158.02734375 14.34765625 158.02734375 12.09765625 160.27734375 C11.99453125 160.91671875 11.89140625 161.55609375 11.78515625 162.21484375 C11.09765625 164.27734375 11.09765625 164.27734375 8.8046875 165.63671875 C5.97644908 167.35080264 4.27838975 169.12374083 2.09765625 171.58984375 C-4.49780633 178.28374607 -12.48760551 182.46912946 -21.96484375 183.02734375 C-31.70200209 182.42438401 -38.84612295 177.81904654 -45.40234375 170.83984375 C-53.90234375 160.80929713 -53.90234375 160.80929713 -53.90234375 156.27734375 C-54.56234375 156.27734375 -55.22234375 156.27734375 -55.90234375 156.27734375 C-72.77207003 116.22352438 -74.82582461 74.20479579 -59.796875 33.2109375 C-58.90234375 31.27734375 -58.90234375 31.27734375 -56.90234375 29.27734375 C-56.18840447 27.6514586 -55.52718087 26.00200812 -54.90234375 24.33984375 C-53.75758577 21.30355208 -52.71777272 19.0004872 -50.90234375 16.27734375 C-50.24234375 16.27734375 -49.58234375 16.27734375 -48.90234375 16.27734375 C-48.80953125 15.22740234 -48.80953125 15.22740234 -48.71484375 14.15625 C-46.8534369 7.56078437 -40.08054704 1.64574306 -34.6640625 -2.390625 C-24.43962211 -7.72427846 -9.64975488 -5.72751265 0 0 Z " fill="#2A94E5" transform="translate(256.90234375,213.72265625)"/>
<path d="M0 0 C0.66 0 1.32 0 2 0 C2.01981934 1.00788574 2.03963867 2.01577148 2.06005859 3.05419922 C2.13684207 6.83779486 2.22543916 10.62104182 2.31738281 14.40429688 C2.35537511 16.03345799 2.3902765 17.66269452 2.421875 19.29199219 C2.66399678 32.26519556 2.66399678 32.26519556 5 45 C5.24621094 45.98613281 5.49242187 46.97226562 5.74609375 47.98828125 C7.06645934 52.42679836 8.51548833 56.06618986 11 60 C11.47524216 61.32740051 11.93213392 62.66144972 12.375 64 C13.82715487 67.98968322 15.71116952 70.23439255 19 73 C19.73863281 73.69996094 19.73863281 73.69996094 20.4921875 74.4140625 C24.8834082 78.17496444 28.65387434 78.65941414 34.359375 78.33984375 C40.54096753 77.54428376 43.84050575 75.5241768 47.6875 70.75 C50.42915287 66.97713986 52.81104959 63.11522677 55 59 C57.67576692 60.00617682 58.7785108 60.54214546 60.046875 63.1640625 C60.27890625 63.97617187 60.5109375 64.78828125 60.75 65.625 C61.11351562 66.85089844 61.11351562 66.85089844 61.484375 68.1015625 C61.65453125 68.72804688 61.8246875 69.35453125 62 70 C62.66 70 63.32 70 64 70 C65.82537293 73.87891748 66.37471785 76.72411 66 81 C64.90413899 83.47920763 63.82213895 85.63678694 62.4375 87.9375 C62.06963379 88.5550415 61.70176758 89.17258301 61.32275391 89.80883789 C55.2925873 99.65568095 47.7756997 105.06472836 37 109 C30.50140551 110.14091576 24.60620928 109.71762374 18.8671875 106.32421875 C13.03460828 102.18772428 8.41990504 97.66462041 4.32421875 91.796875 C3.0683639 89.97416635 3.0683639 89.97416635 1.4765625 88.59375 C-0.46527366 86.49779986 -1.25773126 84.4032327 -2.3125 81.75 C-3.70223243 78.25882369 -5.09452151 74.78138991 -6.5859375 71.33203125 C-12.85653184 56.72156545 -14.62922907 43.01196771 -10.8125 27.5625 C-10.58836426 26.63743652 -10.36422852 25.71237305 -10.13330078 24.75927734 C-8.50528837 18.33016203 -6.33995997 12.73876283 -3 7 C-1.94070721 4.68728109 -0.97126831 2.3514917 0 0 Z " fill="#154479" transform="translate(218,246)"/>
<path d="M0 0 C0.86882813 0.00644531 1.73765625 0.01289063 2.6328125 0.01953125 C4.875 0.1875 4.875 0.1875 6.875 1.1875 C6.875 11.4175 6.875 21.6475 6.875 32.1875 C0.935 32.6825 0.935 32.6825 -5.125 33.1875 C-10.00785918 34.51462461 -10.00785918 34.51462461 -11.03622437 36.91307068 C-12.20264641 43.49992734 -12.46969659 49.97735256 -12.5390625 56.66015625 C-12.55842865 57.8238121 -12.5777948 58.98746796 -12.5977478 60.18638611 C-12.65714921 63.87418469 -12.70377077 67.56201515 -12.75 71.25 C-12.78821607 73.76238281 -12.82726988 76.27475302 -12.8671875 78.78710938 C-12.96281809 84.92046047 -13.04797916 91.05388848 -13.125 97.1875 C-16.77081687 97.21637512 -20.41660463 97.23425585 -24.0625 97.25 C-25.62387695 97.26256836 -25.62387695 97.26256836 -27.21679688 97.27539062 C-28.20615234 97.27861328 -29.19550781 97.28183594 -30.21484375 97.28515625 C-31.58950806 97.29301147 -31.58950806 97.29301147 -32.99194336 97.30102539 C-35.125 97.1875 -35.125 97.1875 -36.125 96.1875 C-36.22026806 93.23503646 -36.25052452 90.30601579 -36.23852539 87.35327148 C-36.23867142 86.42653625 -36.23881744 85.49980103 -36.2389679 84.54498291 C-36.23826838 81.46616313 -36.23047421 78.38740303 -36.22265625 75.30859375 C-36.22079221 73.18009982 -36.21936824 71.05160547 -36.21836853 68.92311096 C-36.21454228 63.3088768 -36.20471108 57.69466832 -36.19366455 52.08044434 C-36.18345273 46.35636747 -36.1788714 40.63228647 -36.17382812 34.90820312 C-36.16308891 23.66795744 -36.1460112 12.42773085 -36.125 1.1875 C-32.97918577 1.15861486 -29.83340531 1.14074077 -26.6875 1.125 C-25.78966797 1.11662109 -24.89183594 1.10824219 -23.96679688 1.09960938 C-23.11279297 1.09638672 -22.25878906 1.09316406 -21.37890625 1.08984375 C-20.19276733 1.08198853 -20.19276733 1.08198853 -18.98266602 1.07397461 C-17.125 1.1875 -17.125 1.1875 -16.125 2.1875 C-16.08419217 4.18708364 -16.08245644 6.18795254 -16.125 8.1875 C-12.96062756 7.43597612 -12.96062756 7.43597612 -11.1875 4.75 C-7.90219654 0.66825934 -5.15587422 -0.08464868 0 0 Z " fill="#0391E8" transform="translate(549.125,290.8125)"/>
<path d="M0 0 C0.9796875 -0.00257813 1.959375 -0.00515625 2.96875 -0.0078125 C5.5 0.125 5.5 0.125 7.5 1.125 C7.5 11.355 7.5 21.585 7.5 32.125 C1.56 32.62 1.56 32.62 -4.5 33.125 C-8.16568701 35.03115725 -9.1395835 36.17348431 -10.59130859 40.00610352 C-12.0222736 45.37487221 -11.85729191 50.88225753 -11.9140625 56.40234375 C-11.93342865 57.5688295 -11.9527948 58.73531525 -11.9727478 59.93714905 C-12.03230104 63.64552608 -12.07883229 67.35393456 -12.125 71.0625 C-12.16320206 73.58399756 -12.20225508 76.10548238 -12.2421875 78.62695312 C-12.33798267 84.79285527 -12.4231007 90.95883479 -12.5 97.125 C-16.14581687 97.15387512 -19.79160463 97.17175585 -23.4375 97.1875 C-24.99887695 97.20006836 -24.99887695 97.20006836 -26.59179688 97.21289062 C-27.58115234 97.21611328 -28.57050781 97.21933594 -29.58984375 97.22265625 C-30.96450806 97.23051147 -30.96450806 97.23051147 -32.36694336 97.23852539 C-34.5 97.125 -34.5 97.125 -35.5 96.125 C-35.59525367 93.20305335 -35.62552736 90.30479671 -35.61352539 87.38256836 C-35.61367142 86.4655867 -35.61381744 85.54860504 -35.6139679 84.60383606 C-35.6132684 81.55748164 -35.60547428 78.51118755 -35.59765625 75.46484375 C-35.5957922 73.35877007 -35.59436824 71.25269597 -35.59336853 69.1466217 C-35.58954231 63.59157117 -35.57971114 58.03654659 -35.56866455 52.48150635 C-35.55845267 46.8177526 -35.55387139 41.15399467 -35.54882812 35.49023438 C-35.53808896 24.36847631 -35.52049132 13.24674437 -35.5 2.125 C-28.9 2.125 -22.3 2.125 -15.5 2.125 C-15.5 5.095 -15.5 8.065 -15.5 11.125 C-14.84 11.125 -14.18 11.125 -13.5 11.125 C-13.2525 10.403125 -13.005 9.68125 -12.75 8.9375 C-9.81546793 2.33480284 -7.07138698 -0.01860891 0 0 Z " fill="#0190E8" transform="translate(1064.5,290.875)"/>
<path d="M0 0 C7.59 0 15.18 0 23 0 C23 31.68 23 63.36 23 96 C15.41 96 7.82 96 0 96 C0 64.32 0 32.64 0 0 Z " fill="#0D94E6" transform="translate(642,292)"/>
<path d="M0 0 C0 0.66 0 1.32 0 2 C1.0209375 2.309375 1.0209375 2.309375 2.0625 2.625 C10.6956814 6.66606363 16.13364287 14.47392935 20 23 C20.81988352 29.0285553 19.02607002 32.79561789 16.125 37.875 C15.76019531 38.55046875 15.39539063 39.2259375 15.01953125 39.921875 C12.2974818 44.8512591 12.2974818 44.8512591 10 46 C9.50371094 45.27554688 9.00742187 44.55109375 8.49609375 43.8046875 C6.39548058 40.81520007 4.22571861 37.89740869 2 35 C1.484375 34.31808594 0.96875 33.63617188 0.4375 32.93359375 C-2.24585966 30.03360871 -4.23763613 29.1106506 -8.17578125 28.5390625 C-25.25273553 28.07021265 -41.2628577 31.09354089 -54 43 C-53.56063774 37.83749349 -52.24464556 33.91693198 -50.0234375 29.24609375 C-49.1001553 27.21980649 -48.41755968 25.24471873 -47.75 23.125 C-44.66630043 14.74538161 -38.29590426 7.07612131 -31 2 C-30.18208984 1.38318359 -30.18208984 1.38318359 -29.34765625 0.75390625 C-21.04920372 -4.49391165 -8.89922375 -2.89311565 0 0 Z " fill="#17467A" transform="translate(264,172)"/>
<path d="M0 0 C2.92699884 -0.2976609 5.14531238 -0.50314531 8 0 C12.77667769 4.2574736 14.59713572 8.70901585 15.20507812 15.18432617 C15.30394502 17.56444571 15.32865785 19.93040537 15.3125 22.3125 C15.30621582 23.56945679 15.30621582 23.56945679 15.29980469 24.85180664 C15.16643986 32.16062487 14.3240869 38.38475371 10.3125 44.625 C6.62076109 46.820088 4.26163042 46.60880435 0 46 C-2.02829372 43.59140121 -3 42.16955691 -3 39 C-3.66 39 -4.32 39 -5 39 C-5.12481659 34.8925741 -5.21490108 30.78590193 -5.2746582 26.67700195 C-5.29960121 25.28325134 -5.33356946 23.88962879 -5.37719727 22.49633789 C-5.63949459 13.89607155 -5.39507236 7.08354146 0 0 Z " fill="#EEF8FB" transform="translate(591,317)"/>
<path d="M0 0 C0.66 0 1.32 0 2 0 C2.01981934 1.00788574 2.03963867 2.01577148 2.06005859 3.05419922 C2.13684207 6.83779486 2.22543916 10.62104182 2.31738281 14.40429688 C2.35537511 16.03345799 2.3902765 17.66269452 2.421875 19.29199219 C2.66399678 32.26519556 2.66399678 32.26519556 5 45 C5.24621094 45.98613281 5.49242187 46.97226562 5.74609375 47.98828125 C7.06564275 52.42405332 8.53260964 56.05217543 11 60 C10.67 60.66 10.34 61.32 10 62 C6.17021277 58.42553191 6.17021277 58.42553191 5.125 55.8125 C4.0924788 53.68990828 4.0924788 53.68990828 1.25 53.25 C-1.8518274 53.01139789 -4.89054794 52.92596543 -8 53 C-8.33 56.3 -8.66 59.6 -9 63 C-11.18862742 59.71705887 -11.54971849 57.73760442 -12.125 53.875 C-12.29257813 52.79992187 -12.46015625 51.72484375 -12.6328125 50.6171875 C-13.45668396 42.50117716 -12.76856265 35.48030768 -10.8125 27.5625 C-10.58836426 26.63743652 -10.36422852 25.71237305 -10.13330078 24.75927734 C-8.50528837 18.33016203 -6.33995997 12.73876283 -3 7 C-1.94070721 4.68728109 -0.97126831 2.3514917 0 0 Z " fill="#265080" transform="translate(218,246)"/>
<path d="M0 0 C7.59 0 15.18 0 23 0 C23 8.25 23 16.5 23 25 C15.41 25 7.82 25 0 25 C0 16.75 0 8.5 0 0 Z " fill="#1595E4" transform="translate(642,257)"/>
<path d="M0 0 C7.59 0 15.18 0 23 0 C23 43.23 23 86.46 23 131 C16.73 131 10.46 131 4 131 C3.67 127.37 3.34 123.74 3 120 C1.515 120.495 1.515 120.495 0 121 C0.33 120.01 0.66 119.02 1 118 C2.9375 118.5 2.9375 118.5 5 120 C5.68790422 122.69658452 5.81946464 125.2017019 6 128 C10.95 128 15.9 128 21 128 C21 86.42 21 44.84 21 2 C14.73 2 8.46 2 2 2 C2 15.86 2 29.72 2 44 C0.68 43.67 -0.64 43.34 -2 43 C-1.67 42.34 -1.34 41.68 -1 41 C-0.84254174 37.9395806 -0.74133123 34.898581 -0.68359375 31.8359375 C-0.66281265 30.92872955 -0.64203156 30.02152161 -0.62062073 29.08682251 C-0.55512865 26.1829602 -0.49624186 23.27900595 -0.4375 20.375 C-0.39431445 18.40884458 -0.35070015 16.44269853 -0.30664062 14.4765625 C-0.19863907 9.65113461 -0.09956323 4.82563899 0 0 Z " fill="#42A7E1" transform="translate(605,257)"/>
<path d="M0 0 C3.14581423 -0.02888514 6.29159469 -0.04675923 9.4375 -0.0625 C10.33533203 -0.07087891 11.23316406 -0.07925781 12.15820312 -0.08789062 C13.01220703 -0.09111328 13.86621094 -0.09433594 14.74609375 -0.09765625 C15.93223267 -0.10551147 15.93223267 -0.10551147 17.14233398 -0.11352539 C19 0 19 0 20 1 C20.04080783 2.99958364 20.04254356 5.00045254 20 7 C23.68802044 5.77065985 24.72356973 4.06140622 27 1 C27.66 1.33 28.32 1.66 29 2 C28.525625 2.433125 28.05125 2.86625 27.5625 3.3125 C25.76313043 5.02309613 25.76313043 5.02309613 25 8 C24.34 8 23.68 8 23 8 C22.67 10.31 22.34 12.62 22 15 C21.01 15 20.02 15 19 15 C18.34 11.04 17.68 7.08 17 3 C12.38 3 7.76 3 3 3 C2.67 33.03 2.34 63.06 2 94 C8.27 94 14.54 94 21 94 C21 78.82 21 63.64 21 48 C21.66 48 22.32 48 23 48 C23 63.84 23 79.68 23 96 C15.74 96 8.48 96 1 96 C-0.88885195 94.11114805 -0.12010635 91.35948241 -0.12442017 88.84675598 C-0.12082489 87.9620311 -0.11722961 87.07730621 -0.11352539 86.16577148 C-0.11367142 85.23903625 -0.11381744 84.31230103 -0.1139679 83.35748291 C-0.11326838 80.27866313 -0.10547421 77.19990303 -0.09765625 74.12109375 C-0.09579221 71.99259982 -0.09436824 69.86410547 -0.09336853 67.73561096 C-0.08954228 62.1213768 -0.07971108 56.50716832 -0.06866455 50.89294434 C-0.05845273 45.16886747 -0.0538714 39.44478647 -0.04882812 33.72070312 C-0.03808891 22.48045744 -0.0210112 11.24023085 0 0 Z " fill="#4CABE3" transform="translate(513,292)"/>
<path d="M0 0 C1.125 3.75 1.125 3.75 0 6 C0.99 6.33 1.98 6.66 3 7 C3 21.52 3 36.04 3 51 C2.67 51 2.34 51 2 51 C1.14324615 45.83279599 0.86532419 40.89219378 0.90234375 35.66015625 C0.9037587 34.89319931 0.90517365 34.12624237 0.90663147 33.33604431 C0.91218234 30.9114881 0.92472537 28.48702781 0.9375 26.0625 C0.94252136 24.40820447 0.94708315 22.75390747 0.95117188 21.09960938 C0.96213562 17.06636988 0.97936576 13.03320114 1 9 C0.34 9 -0.32 9 -1 9 C-1.226875 9.94875 -1.45375 10.8975 -1.6875 11.875 C-2.53926459 14.92215782 -3.74519766 17.38468521 -5.3125 20.125 C-8.03925568 25.39185843 -9.42804123 30.82995198 -10.8125 36.5625 C-11.03139893 37.4488916 -11.25029785 38.3352832 -11.47583008 39.24853516 C-13.17779363 46.6335353 -13.45464248 53.54469048 -12.5 61.0625 C-12.335 62.361875 -12.17 63.66125 -12 65 C-12.66 64.67 -13.32 64.34 -14 64 C-14 62.68 -14 61.36 -14 60 C-15.485 60.495 -15.485 60.495 -17 61 C-17.33 69.25 -17.66 77.5 -18 86 C-18.33 86 -18.66 86 -19 86 C-19.0754071 81.69908854 -19.12917959 77.39854974 -19.16479492 73.09716797 C-19.17967624 71.6407194 -19.19998796 70.18431392 -19.22631836 68.72802734 C-19.40257147 58.71270333 -18.46032399 49.77691065 -16 40 C-15.7301885 38.67817386 -15.46951094 37.35436999 -15.2265625 36.02734375 C-12.58519593 22.46032454 -7.54498635 11.43917286 0 0 Z " fill="#C5DFED" transform="translate(219,237)"/>
<path d="M0 0 C0.02703381 1.93742341 0.04641125 3.87495479 0.0625 5.8125 C0.07410156 6.89144531 0.08570313 7.97039062 0.09765625 9.08203125 C0 12 0 12 -1 15 C-1.66 15 -2.32 15 -3 15 C-3.268125 15.61875 -3.53625 16.2375 -3.8125 16.875 C-5 19 -5 19 -8 21 C-12.38704487 21.31905781 -15.17808044 21.11675545 -19 19 C-19.85984185 8.26153062 -19.85984185 8.26153062 -16.875 4.4375 C-11.49252371 -0.12590381 -6.75596504 -0.23296431 0 0 Z " fill="#EDF9FB" transform="translate(476,346)"/>
<path d="M0 0 C6.6 0 13.2 0 20 0 C20 2.97 20 5.94 20 9 C20.66 9 21.32 9 22 9 C22 10.65 22 12.3 22 14 C21.01 14 20.02 14 19 14 C18.505 7.565 18.505 7.565 18 1 C12.72 1 7.44 1 2 1 C2 31.36 2 61.72 2 93 C8.6 93 15.2 93 22 93 C22 77.82 22 62.64 22 47 C22.33 47 22.66 47 23 47 C23 62.84 23 78.68 23 95 C15.74 95 8.48 95 1 95 C-0.87788672 93.12211328 -0.12008587 90.40834091 -0.12442017 87.91021729 C-0.12082489 87.03484314 -0.11722961 86.15946899 -0.11352539 85.25756836 C-0.11367142 84.3405867 -0.11381744 83.42360504 -0.1139679 82.47883606 C-0.1132684 79.43248164 -0.10547428 76.38618755 -0.09765625 73.33984375 C-0.0957922 71.23377007 -0.09436824 69.12769597 -0.09336853 67.0216217 C-0.08954231 61.46657117 -0.07971114 55.91154659 -0.06866455 50.35650635 C-0.05845267 44.6927526 -0.05387139 39.02899467 -0.04882812 33.36523438 C-0.03808896 22.24347631 -0.02049132 11.12174437 0 0 Z " fill="#53B1E7" transform="translate(1029,293)"/>
<path d="M0 0 C1.03317819 11.4797577 1.03317819 11.4797577 -2.875 16.6875 C-5.85183294 20.16047176 -7.23097307 20.92675934 -11.9375 21.375 C-15.69316081 21.30683919 -15.69316081 21.30683919 -18 19 C-19.25871863 15.2238441 -19.80867669 11.89843196 -19 8 C-16.73617424 4.40451202 -15.00636323 2.4919998 -11.1875 0.625 C-7.33888619 -0.12963016 -3.91766158 -0.13509178 0 0 Z " fill="#EBF7FB" transform="translate(717,346)"/>
<path d="M0 0 C1.02987993 12.51113399 1.02987993 12.51113399 -2.4375 17.8125 C-4.35137304 19.9678856 -5.50684265 20.86664623 -8.296875 21.62109375 C-11.80884414 21.81046463 -14.15204028 21.59100223 -17.0625 19.5625 C-18.84196306 14.69863431 -18.65855302 10.0195626 -17.0625 5.125 C-12.48464542 0.40842255 -6.30899086 -0.17297378 0 0 Z " fill="#EAF8FB" transform="translate(992,346)"/>
<path d="M0 0 C2.66988816 2.08947769 4.45640785 3.74555657 5.8125 6.875 C6.07990011 9.90553453 6 12.95769128 6 16 C-0.93 16 -7.86 16 -15 16 C-15 6.66666667 -15 6.66666667 -11 2 C-7.59196534 -0.5854056 -4.15783207 -0.51061096 0 0 Z " fill="#E6F6FA" transform="translate(1117,313)"/>
<path d="M0 0 C0.66 0 1.32 0 2 0 C2.21788082 4.18018289 2.41456252 8.36067707 2.59204102 12.54272461 C2.65529384 13.96389099 2.72423471 15.38481648 2.79907227 16.80541992 C2.90593252 18.8529771 2.99199609 20.90054202 3.07421875 22.94921875 C3.13182373 24.17987061 3.18942871 25.41052246 3.2487793 26.6784668 C2.97790885 30.29494616 2.10823019 32.09666586 0 35 C-1.5 33.625 -1.5 33.625 -3 32 C-3 31.34 -3 30.68 -3 30 C-5.99332739 30.9977758 -6.94766315 31.7522025 -9 34 C-10.00282133 22.41184241 -7.28521847 9.20238123 0 0 Z " fill="#18477B" transform="translate(216,252)"/>
<path d="M0 0 C0.33 0.66 0.66 1.32 1 2 C0.26305897 4.00852555 -0.56397594 5.98449906 -1.4375 7.9375 C-3.4551831 12.30725564 -3.4551831 12.30725564 -4 17 C-3.43152344 16.44570312 -2.86304688 15.89140625 -2.27734375 15.3203125 C2.3423401 10.98598475 5.69825078 8.07263816 12 7 C9.74259377 9.33524782 7.7194239 11.18705073 5 13 C5.59167969 12.79503906 6.18335938 12.59007812 6.79296875 12.37890625 C7.58316406 12.10949219 8.37335938 11.84007812 9.1875 11.5625 C9.96480469 11.29566406 10.74210937 11.02882812 11.54296875 10.75390625 C21.43470947 7.71876164 31.66131602 9.89097905 41 14 C41 14.66 41 15.32 41 16 C41.928125 16.2165625 41.928125 16.2165625 42.875 16.4375 C45 17 45 17 47 18 C47 18.66 47 19.32 47 20 C41.25 18.25 41.25 18.25 39 16 C30.34296214 12.50512175 20.21687031 11.22497634 11.16796875 13.80859375 C4.6061243 16.72160918 0.36101351 21.40864469 -4 27 C-4.33 26.01 -4.66 25.02 -5 24 C-5.99 24 -6.98 24 -8 24 C-8.31467226 18.96524385 -7.65298887 15.51892112 -5.734375 10.8671875 C-4.84971384 8.61788945 -4.37253823 6.38424465 -4 4 C-3.01 4 -2.02 4 -1 4 C-0.67 2.68 -0.34 1.36 0 0 Z " fill="#E7F4F8" transform="translate(215,197)"/>
<path d="M0 0 C1.61270411 5.01730167 0.55290597 9.83954431 0 15 C5.94 15 11.88 15 18 15 C18.33 12.69 18.66 10.38 19 8 C23.59358168 6.81455957 28.2903025 6.36498461 33 7 C36.42010852 9.36776744 37.91431429 12.01915241 39 16 C39.52261307 22.95477387 39.52261307 22.95477387 38 26 C36.25976562 26.03867187 36.25976562 26.03867187 34.484375 26.078125 C25.83260136 26.36194176 18.3229741 26.98102432 10.1875 30.2578125 C9.465625 30.50273437 8.74375 30.74765625 8 31 C7.34 30.67 6.68 30.34 6 30 C7.71070192 29.26205015 9.42197489 28.52538342 11.13671875 27.796875 C12.59795735 27.17194277 14.05071642 26.52717761 15.5 25.875 C22.44523608 23.44416737 29.74383608 23.89276605 37 24 C36.94008594 22.04081032 36.85132862 20.08248471 36.75 18.125 C36.70359375 17.03445313 36.6571875 15.94390625 36.609375 14.8203125 C36.30352777 11.92413712 36.30352777 11.92413712 34.20703125 10.63671875 C30.57955769 9.59020868 27.78906862 9.69928027 24 10 C20.88189078 12.01168336 20.9455325 13.21786998 20 17 C12.74 17 5.48 17 -2 17 C-2 5.75 -2 5.75 0 0 Z " fill="#39A2DF" transform="translate(439,305)"/>
<path d="M0 0 C4.29 0 8.58 0 13 0 C13 0.66 13 1.32 13 2 C13.66 2 14.32 2 15 2 C15.02469081 6.3782512 15.04285557 10.75646567 15.05493164 15.13476562 C15.05996514 16.62468166 15.06679242 18.11459274 15.07543945 19.60449219 C15.08754805 21.74415304 15.09323807 23.88374868 15.09765625 26.0234375 C15.10551147 27.95582275 15.10551147 27.95582275 15.11352539 29.92724609 C15 33 15 33 14 35 C12.10736407 35.12656819 10.2093274 35.17583439 8.3125 35.1875 C3.94254769 35.4892348 1.3382549 35.78459885 -1.6875 39.0625 C-6.36854878 44.93107148 -5.19556622 54.92758603 -5.31640625 62.0625 C-5.33718735 63.09439453 -5.35796844 64.12628906 -5.37937927 65.18945312 C-5.44434105 68.45957296 -5.50350965 71.72976755 -5.5625 75 C-5.60573607 77.22787206 -5.64935192 79.45573679 -5.69335938 81.68359375 C-5.7999671 87.12231867 -5.90182885 92.5611166 -6 98 C-6.33 98 -6.66 98 -7 98 C-7.07631204 90.74095422 -7.12870984 83.48201263 -7.16479492 76.22265625 C-7.17984452 73.75516901 -7.2002889 71.28770835 -7.22631836 68.8203125 C-7.26286926 65.26555809 -7.27976518 61.71115861 -7.29296875 58.15625 C-7.30845261 57.06010376 -7.32393646 55.96395752 -7.33988953 54.83459473 C-7.34149551 47.46018915 -6.72430597 41.5152335 -2.0625 35.5 C1 34 1 34 13 34 C13 23.77 13 13.54 13 3 C8.71 2.67 4.42 2.34 0 2 C0 1.34 0 0.68 0 0 Z " fill="#B6E3FB" transform="translate(1059,289)"/>
<path d="M0 0 C0.66 0 1.32 0 2 0 C3.4375 1.90625 3.4375 1.90625 5 4.5 C5.515625 5.3353125 6.03125 6.170625 6.5625 7.03125 C10.13734743 14.41408708 10.3256307 21.66197352 10.4140625 29.71875 C10.43342865 30.81723267 10.4527948 31.91571533 10.4727478 33.04748535 C10.53218863 36.53157967 10.57878667 40.01570766 10.625 43.5 C10.66321244 45.87240968 10.70226605 48.24480597 10.7421875 50.6171875 C10.83786078 56.41133885 10.92301069 62.20557187 11 68 C12.98 68 14.96 68 17 68 C17 74.93 17 81.86 17 89 C16.01 89.495 16.01 89.495 15 90 C15 83.4 15 76.8 15 70 C13.35 70 11.7 70 10 70 C8.4077072 66.47238868 7.7475938 63.70878699 7.72875977 59.84594727 C7.71857315 58.84463272 7.70838654 57.84331818 7.69789124 56.81166077 C7.69575119 55.74072678 7.69361115 54.66979279 7.69140625 53.56640625 C7.66625085 51.28580469 7.64085275 49.00520579 7.61523438 46.72460938 C7.5864781 43.13892277 7.5624518 39.55328235 7.54370117 35.9675293 C7.52203513 32.50024857 7.48259987 29.03350193 7.44140625 25.56640625 C7.44129044 24.49749649 7.44117462 23.42858673 7.4410553 22.32728577 C7.36823859 16.84387669 7.19957292 12.68615425 4 8 C3.34 7.67 2.68 7.34 2 7 C1.26924352 4.6859378 0.59861742 2.35171131 0 0 Z " fill="#46A3D5" transform="translate(1005,297)"/>
<path d="M0 0 C7.98978593 7.98978593 5 27.65864219 5 36 C-9.85 36 -24.7 36 -40 36 C-40 35.34 -40 34.68 -40 34 C-25.81 34 -11.62 34 3 34 C2.64196505 19.54408686 2.64196505 19.54408686 0.40234375 5.875 C0 4 0 4 0 0 Z " fill="#38A0DE" transform="translate(1141,310)"/>
<path d="M0 0 C0.33 0 0.66 0 1 0 C1.02685412 2.31243792 1.04632841 4.6249627 1.0625 6.9375 C1.07410156 8.22527344 1.08570313 9.51304687 1.09765625 10.83984375 C1 14 1 14 0 15 C-1.35094982 15.09268999 -2.70667091 15.11747326 -4.06079102 15.11352539 C-4.92160782 15.11344986 -5.78242462 15.11337433 -6.66932678 15.11329651 C-7.60473801 15.10813522 -8.54014923 15.10297394 -9.50390625 15.09765625 C-10.45692123 15.0962413 -11.40993622 15.09482635 -12.39183044 15.09336853 C-15.44875165 15.08775152 -18.50560077 15.07519616 -21.5625 15.0625 C-23.62955624 15.05748719 -25.69661362 15.05292391 -27.76367188 15.04882812 C-32.84247588 15.03777656 -37.9212257 15.02050055 -43 15 C-42.86287598 15.60835693 -42.72575195 16.21671387 -42.58447266 16.84350586 C-42.4044873 17.64667236 -42.22450195 18.44983887 -42.0390625 19.27734375 C-41.86068848 20.07132568 -41.68231445 20.86530762 -41.49853516 21.68334961 C-40.90484975 24.4421551 -40.42905495 27.21114284 -40 30 C-42.86302271 28.56848865 -43.25755446 26.34156155 -44.4140625 23.49609375 C-45 21 -45 21 -45 13 C-30.15 13 -15.3 13 0 13 C0 8.71 0 4.42 0 0 Z " fill="#CCEFFC" transform="translate(1146,333)"/>
<path d="M0 0 C3.55765227 3.55765227 4.2457923 7.34238268 4.31884766 12.24926758 C4.33871735 13.26994827 4.35858704 14.29062897 4.37905884 15.34223938 C4.39061005 16.4319957 4.40216125 17.52175201 4.4140625 18.64453125 C4.43342865 19.7694548 4.4527948 20.89437836 4.4727478 22.0533905 C4.5324371 25.63968366 4.57888694 29.22600909 4.625 32.8125 C4.66318953 35.24675864 4.70224183 37.68100392 4.7421875 40.11523438 C4.83812998 46.07670405 4.92320875 52.03825453 5 58 C4.34 58 3.68 58 3 58 C2.06292242 55.18876726 1.85596583 53.38729862 1.81054688 50.47192383 C1.79382935 49.55699661 1.77711182 48.6420694 1.7598877 47.69941711 C1.73952454 46.21818611 1.73952454 46.21818611 1.71875 44.70703125 C1.69113586 43.17703743 1.69113586 43.17703743 1.66296387 41.61613464 C1.60418066 38.34831545 1.55142582 35.08044274 1.5 31.8125 C1.43201533 27.5272417 1.35822882 23.24213628 1.28125 18.95703125 C1.26767456 17.97966507 1.25409912 17.00229889 1.2401123 15.99531555 C1.14295139 10.58623293 0.77920565 5.35467283 0 0 Z " fill="#4BACE6" transform="translate(495,307)"/>
<path d="M0 0 C4.4294409 6.64416135 4 11.83948721 4 20 C-3.59 20 -11.18 20 -19 20 C-19.48828125 16.94010417 -19.9765625 13.88020833 -20.46484375 10.8203125 C-20.85551159 8.06178454 -20.85551159 8.06178454 -22 6 C-20.0625 6.3125 -20.0625 6.3125 -18 7 C-17 10 -17 10 -17 18 C-11.06 18 -5.12 18 1 18 C0.67 12.06 0.34 6.12 0 0 Z " fill="#3FA4E1" transform="translate(814,311)"/>
<path d="M0 0 C0.66 0.33 1.32 0.66 2 1 C1.57847656 1.53109375 1.15695312 2.0621875 0.72265625 2.609375 C0.17480469 3.31578125 -0.37304688 4.0221875 -0.9375 4.75 C-1.75541016 5.79414063 -1.75541016 5.79414063 -2.58984375 6.859375 C-3.98607214 8.97885743 -4.41022169 10.57303617 -5 13 C-6.65365406 14.02137457 -8.32376502 15.01612294 -10 16 C-12.4288448 18.24278423 -14.72256533 20.60442751 -17 23 C-17.33 21.68 -17.66 20.36 -18 19 C-18.99 19 -19.98 19 -21 19 C-22.33981486 18.6937566 -23.67511887 18.36548445 -25 18 C-24.04738281 17.55269531 -23.09476563 17.10539062 -22.11328125 16.64453125 C-20.84609015 16.0344022 -19.57917772 15.42369415 -18.3125 14.8125 C-17.68666016 14.52052734 -17.06082031 14.22855469 -16.41601562 13.92773438 C-12.15679698 11.85387399 -9.31106396 9.4542451 -6 6 C-5.34 6 -4.68 6 -4 6 C-3.566875 5.071875 -3.566875 5.071875 -3.125 4.125 C-2 2 -2 2 0 0 Z " fill="#489EDE" transform="translate(273,365)"/>
<path d="M0 0 C0.33 1.32 0.66 2.64 1 4 C0.01 4.495 0.01 4.495 -1 5 C-1.6127635 7.50969167 -2.12207123 9.95996108 -2.5625 12.5 C-3.88337989 19.88337989 -3.88337989 19.88337989 -5 21 C-5.08858646 23.73894085 -5.11523479 26.4525327 -5.09765625 29.19140625 C-5.0962413 30.01124496 -5.09482635 30.83108368 -5.09336853 31.67576599 C-5.08775289 34.30471382 -5.07519779 36.93357773 -5.0625 39.5625 C-5.05748701 41.34049357 -5.05292376 43.11848846 -5.04882812 44.89648438 C-5.03777839 49.26435545 -5.02050331 53.63216348 -5 58 C-5.33 58 -5.66 58 -6 58 C-11.75489404 41.77535897 -9.04481694 19.86403899 -3 4 C-1.33203125 1.4296875 -1.33203125 1.4296875 0 0 Z " fill="#2898DB" transform="translate(1087,303)"/>
<path d="M0 0 C0.66 0.33 1.32 0.66 2 1 C1.71415039 1.70858154 1.42830078 2.41716309 1.13378906 3.1472168 C-2.56393001 13.44673692 -2.46561034 22.99638705 -2.25 33.8125 C-2.22988632 35.58396398 -2.21164423 37.35545024 -2.1953125 39.12695312 C-2.15174345 43.41853043 -2.08299167 47.7090115 -2 52 C-2.66 52 -3.32 52 -4 52 C-5.26371651 45.38695308 -5.259041 38.81340429 -5.29516602 32.10742188 C-5.30663935 30.62978504 -5.32701719 29.15218812 -5.35668945 27.67480469 C-5.54633883 18.20293089 -4.97476442 9.80119201 -1 1 C-0.67 0.67 -0.34 0.34 0 0 Z " fill="#39A1DF" transform="translate(894,295)"/>
<path d="M0 0 C0.9796875 -0.00257813 1.959375 -0.00515625 2.96875 -0.0078125 C5.5 0.125 5.5 0.125 7.5 1.125 C7.5 11.355 7.5 21.585 7.5 32.125 C1.56 32.62 1.56 32.62 -4.5 33.125 C-5.49 33.785 -6.48 34.445 -7.5 35.125 C-6.84 33.475 -6.18 31.825 -5.5 30.125 C-1.54 30.125 2.42 30.125 6.5 30.125 C6.5 20.885 6.5 11.645 6.5 2.125 C-3.0028677 1.04034771 -3.0028677 1.04034771 -7 5.125 C-7.825 6.115 -8.65 7.105 -9.5 8.125 C-10.16 8.125 -10.82 8.125 -11.5 8.125 C-11.5 9.115 -11.5 10.105 -11.5 11.125 C-12.16 11.125 -12.82 11.125 -13.5 11.125 C-10.94390551 3.6697244 -7.91773993 -0.02083616 0 0 Z " fill="#379EDD" transform="translate(1064.5,290.875)"/>
<path d="M0 0 C4.98078136 7.47117204 4.18232745 16.3394463 4 25 C-3.92 25 -11.84 25 -20 25 C-20 23.35 -20 21.7 -20 20 C-19.67 20.99 -19.34 21.98 -19 23 C-12.07 23 -5.14 23 2 23 C1.505 20.091875 1.505 20.091875 1 17.125 C0.10244963 11.35413034 -0.236848 5.82909245 0 0 Z " fill="#4CAADF" transform="translate(939,290)"/>
<path d="M0 0 C0.33 0 0.66 0 1 0 C2.20710262 4.79834032 2.2220623 9.54003176 2.31640625 14.45703125 C2.33718735 15.35999435 2.35796844 16.26295746 2.37937927 17.19328308 C2.4445528 20.06628097 2.50360955 22.93936714 2.5625 25.8125 C2.60571586 27.76498294 2.64933112 29.71745708 2.69335938 31.66992188 C2.80020107 36.44652503 2.90155857 41.22321664 3 46 C4.65 46.33 6.3 46.66 8 47 C6.25 47.625 6.25 47.625 4 48 C2.68 47.34 1.36 46.68 0 46 C0 30.82 0 15.64 0 0 Z " fill="#D2EFFB" transform="translate(739,317)"/>
<path d="M0 0 C0.33 0 0.66 0 1 0 C0.54739701 5.25019467 -0.25237092 10.15988478 -1.5 15.28125 C-3.28602592 23.48568905 -3.55519276 31.50442541 -3.6875 39.875 C-3.72078587 41.35289255 -3.75528522 42.83075828 -3.79101562 44.30859375 C-3.87460017 47.87219781 -3.94199727 51.43587662 -4 55 C-4.33 55 -4.66 55 -5 55 C-8.71619738 37.6777251 -7.11659723 16.26650796 0 0 Z " fill="#4A9DDA" transform="translate(204,268)"/>
<path d="M0 0 C1.125 3.75 1.125 3.75 0 6 C0.99 6.33 1.98 6.66 3 7 C3 21.52 3 36.04 3 51 C2.67 51 2.34 51 2 51 C1.14324615 45.83279599 0.86532419 40.89219378 0.90234375 35.66015625 C0.9037587 34.89319931 0.90517365 34.12624237 0.90663147 33.33604431 C0.91218234 30.9114881 0.92472537 28.48702781 0.9375 26.0625 C0.94252136 24.40820447 0.94708315 22.75390747 0.95117188 21.09960938 C0.96213562 17.06636988 0.97936576 13.03320114 1 9 C0.34 9 -0.32 9 -1 9 C-1.66 11.31 -2.32 13.62 -3 16 C-4.24546405 13.50907189 -3.7767578 12.58919267 -3 10 C-3.99 10.33 -4.98 10.66 -6 11 C-4.54955729 6.89041233 -2.48889248 3.56741255 0 0 Z " fill="#C2D6E3" transform="translate(219,237)"/>
<path d="M0 0 C7.92 0 15.84 0 24 0 C24 6.93105767 23.83995374 12.20387242 22.1875 18.6875 C22.02185547 19.39455078 21.85621094 20.10160156 21.68554688 20.83007812 C20.5535213 25.46497531 18.98432751 29.6617711 17 34 C15.76088986 30.28266958 16.43705147 29.43516221 17.875 25.875 C20.71406482 17.90603874 20.72870837 10.41004056 21 2 C14.4 1.67 7.8 1.34 1 1 C1 2.65 1 4.3 1 6 C0.67 6 0.34 6 0 6 C0 4.02 0 2.04 0 0 Z " fill="#47A6DE" transform="translate(403,337)"/>
<path d="M0 0 C3.9602619 0.56273704 6.52967327 1.73523065 9.8125 4 C10.99779297 4.804375 10.99779297 4.804375 12.20703125 5.625 C13.09455078 6.305625 13.09455078 6.305625 14 7 C14 7.33 14 7.66 14 8 C13.410979 8.0093457 12.82195801 8.01869141 12.21508789 8.02832031 C9.49676984 8.08263875 6.78006152 8.1661584 4.0625 8.25 C3.13630859 8.26417969 2.21011719 8.27835938 1.25585938 8.29296875 C-4.61487062 8.49895928 -8.93265777 9.4609229 -14.12719727 12.24902344 C-16 13 -16 13 -19 12 C-13.02027677 8.01351784 -8.17069318 6.46333098 -1.125 5.8125 C-0.34125 5.73064453 0.4425 5.64878906 1.25 5.56445312 C3.16561529 5.36588325 5.08269042 5.18148253 7 5 C6.030625 4.731875 5.06125 4.46375 4.0625 4.1875 C3.051875 3.795625 2.04125 3.40375 1 3 C0.67 2.01 0.34 1.02 0 0 Z " fill="#4B9DD9" transform="translate(250,212)"/>
<path d="M0 0 C0.33 0.66 0.66 1.32 1 2 C0.26305897 4.00852555 -0.56397594 5.98449906 -1.4375 7.9375 C-3.4551831 12.30725564 -3.4551831 12.30725564 -4 17 C-3.43152344 16.44570312 -2.86304688 15.89140625 -2.27734375 15.3203125 C2.3423401 10.98598475 5.69825078 8.07263816 12 7 C9.17528319 9.92933595 6.31005488 12.62355034 3 15 C2.01 15 1.02 15 0 15 C-0.103125 15.598125 -0.20625 16.19625 -0.3125 16.8125 C-1.10503854 19.33421352 -1.91591409 20.39685699 -4 22 C-4.99 22 -5.98 22 -7 22 C-6.41509121 15.85845775 -5.45933748 9.99320151 -4 4 C-3.01 4 -2.02 4 -1 4 C-0.67 2.68 -0.34 1.36 0 0 Z " fill="#C8D6E2" transform="translate(215,197)"/>
<path d="M0 0 C1.61270411 5.01730167 0.55290597 9.83954431 0 15 C5.94 15 11.88 15 18 15 C18.33 12.69 18.66 10.38 19 8 C20.32 8.33 21.64 8.66 23 9 C22.34 9.66 21.68 10.32 21 11 C20.67 12.98 20.34 14.96 20 17 C12.74 17 5.48 17 -2 17 C-2 5.75 -2 5.75 0 0 Z " fill="#2398DE" transform="translate(439,305)"/>
<path d="M0 0 C0.33 0 0.66 0 1 0 C3.3479743 7.33741969 3.19355213 14.34393782 3 22 C-0.97915159 22.02886984 -4.95827653 22.04675406 -8.9375 22.0625 C-10.64196289 22.07506836 -10.64196289 22.07506836 -12.38085938 22.08789062 C-13.46044922 22.09111328 -14.54003906 22.09433594 -15.65234375 22.09765625 C-17.15269165 22.10551147 -17.15269165 22.10551147 -18.68334961 22.11352539 C-21 22 -21 22 -22 21 C-22.39943176 18.47804033 -22.75079848 15.97036344 -23.0625 13.4375 C-23.19881836 12.37112305 -23.19881836 12.37112305 -23.33789062 11.28320312 C-23.56239503 9.52261597 -23.78168397 7.76136522 -24 6 C-23.01 6.495 -23.01 6.495 -22 7 C-22 7.99 -22 8.98 -22 10 C-21.34 10 -20.68 10 -20 10 C-19.67 13.3 -19.34 16.6 -19 20 C-12.07 20.33 -5.14 20.66 2 21 C1.67 19.02 1.34 17.04 1 15 C0.2095011 9.90629232 -0.20169473 5.14321558 0 0 Z " fill="#74BEE8" transform="translate(424,293)"/>
<path d="M0 0 C0.33 0 0.66 0 1 0 C1 2.64 1 5.28 1 8 C7.6 8 14.2 8 21 8 C21 6.68 21 5.36 21 4 C23.23024586 1.41003707 24.88802612 0.11900724 28.3359375 -0.25 C30.57128893 -0.25 32.77194418 -0.17474948 35 0 C35 0.33 35 0.66 35 1 C33.741875 1.103125 32.48375 1.20625 31.1875 1.3125 C28.64654077 1.64022089 27.23319573 1.84955114 25.0625 3.25 C23.62587124 5.39184047 23.62587124 5.39184047 23 10 C15.41 10 7.82 10 0 10 C0 6.7 0 3.4 0 0 Z " fill="#6EBCEA" transform="translate(677,313)"/>
<path d="M0 0 C0.33 0 0.66 0 1 0 C1 1.98 1 3.96 1 6 C4.68802044 4.77065985 5.72356973 3.06140622 8 0 C8.66 0.33 9.32 0.66 10 1 C9.525625 1.433125 9.05125 1.86625 8.5625 2.3125 C6.76313043 4.02309613 6.76313043 4.02309613 6 7 C5.34 7 4.68 7 4 7 C3.67 9.31 3.34 11.62 3 14 C2.01 14 1.02 14 0 14 C-0.66 10.04 -1.32 6.08 -2 2 C-6.62 2 -11.24 2 -16 2 C-16.33 2.99 -16.66 3.98 -17 5 C-17 3.68 -17 2.36 -17 1 C-15.85660156 1.01160156 -14.71320312 1.02320313 -13.53515625 1.03515625 C-12.04427246 1.04453288 -10.55338691 1.05363321 -9.0625 1.0625 C-8.30775391 1.07087891 -7.55300781 1.07925781 -6.77539062 1.08789062 C-4.85005687 1.09652441 -2.92464419 1.05224333 -1 1 C-0.67 0.67 -0.34 0.34 0 0 Z " fill="#1A96E1" transform="translate(532,293)"/>
<path d="M0 0 C0.33 0 0.66 0 1 0 C1.04487549 0.89605957 1.08975098 1.79211914 1.13598633 2.71533203 C1.31155801 6.11175855 1.49739276 9.5073268 1.68969727 12.90283203 C1.77016876 14.35899806 1.84680714 15.81538213 1.91918945 17.27197266 C2.36456971 26.17343457 3.28390889 34.47382845 5.4831543 43.14013672 C5.98280478 45.90485364 5.94525026 47.39494233 5 50 C3.30579833 45.65400441 1.78997795 41.60820471 1 37 C0.505 35.515 0.505 35.515 0 34 C-0.08481773 31.41369776 -0.11598229 28.85521944 -0.09765625 26.26953125 C-0.0962413 25.51911057 -0.09482635 24.76868988 -0.09336853 23.99552917 C-0.0877756 21.6011454 -0.07522444 19.20685547 -0.0625 16.8125 C-0.05748408 15.18815239 -0.05292134 13.56380332 -0.04882812 11.93945312 C-0.03780848 7.95959931 -0.02054873 3.97981556 0 0 Z " fill="#D4EDFA" transform="translate(186,294)"/>
<path d="M0 0 C0.66 0 1.32 0 2 0 C2.33 12.54 2.66 25.08 3 38 C2.34 38 1.68 38 1 38 C0.68793271 33.55313665 0.38509506 29.1057668 0.09057617 24.65771484 C-0.01076563 23.14647746 -0.11457186 21.63540314 -0.22094727 20.12451172 C-0.3739321 17.94537556 -0.51787192 15.76579538 -0.66015625 13.5859375 C-0.74918213 12.2767334 -0.83820801 10.9675293 -0.92993164 9.61865234 C-0.99523591 6.24603959 -0.67991107 3.29478215 0 0 Z " fill="#44668A" transform="translate(218,246)"/>
<path d="M0 0 C1 2 1 2 0.44140625 3.8203125 C0.15136719 4.58085937 -0.13867188 5.34140625 -0.4375 6.125 C-3.49100811 15.82024002 -3.53565268 27.7652477 1 37 C1.96817992 38.68535024 2.95650161 40.36021682 4 42 C4 42.66 4 43.32 4 44 C4.99 44.33 5.98 44.66 7 45 C6.01 45.495 6.01 45.495 5 46 C0.15480181 41.69315717 -3.44236326 37.04441535 -4.3515625 30.45019531 C-4.46472745 27.66451879 -4.44783401 24.91185935 -4.375 22.125 C-4.37371094 21.19558594 -4.37242187 20.26617187 -4.37109375 19.30859375 C-4.29385574 13.15529892 -3.9262059 6.88790598 -2 1 C-1.34 0.67 -0.68 0.34 0 0 Z " fill="#BFEAF9" transform="translate(954,342)"/>
<path d="M0 0 C1.26831665 0.00132935 1.26831665 0.00132935 2.56225586 0.00268555 C8.78722869 0.12058956 14.53256131 0.77886864 19.8125 4.375 C20.4725 5.365 21.1325 6.355 21.8125 7.375 C16.1079623 5.55991982 16.1079623 5.55991982 14.12109375 4.31640625 C10.68331953 2.91453893 7.2762919 3.12399237 3.625 3.1875 C2.86775635 3.19394531 2.1105127 3.20039063 1.33032227 3.20703125 C-3.89883632 3.27884032 -9.00795928 3.62161226 -14.1875 4.375 C-14.1875 3.715 -14.1875 3.055 -14.1875 2.375 C-9.50306453 -0.00047438 -5.13631984 -0.00953866 0 0 Z " fill="#B7E4F8" transform="translate(707.1875,288.625)"/>
<path d="M0 0 C-3.32984159 3.32984159 -8.4489406 2.7280174 -12.99609375 3.03515625 C-18.11983936 3.48550205 -21.77996766 4.57498424 -26.18896484 7.26220703 C-28.49155678 8.20025406 -29.6958588 7.8023519 -32 7 C-24.52430012 -1.46930556 -10.21443122 -0.13824042 0 0 Z " fill="#37A1DE" transform="translate(992,329)"/>
<path d="M0 0 C0.33 0 0.66 0 1 0 C1 10.56 1 21.12 1 32 C-4.445 32.495 -4.445 32.495 -10 33 C-12.98246784 35.39545381 -12.98246784 35.39545381 -15 38 C-15.99 38 -16.98 38 -18 38 C-17.8125 36.1875 -17.8125 36.1875 -17 34 C-12 31 -12 31 0 31 C0 20.77 0 10.54 0 0 Z " fill="#BCE5FA" transform="translate(556,292)"/>
<path d="M0 0 C6.6 0 13.2 0 20 0 C20.15755627 13.86495177 20.15755627 13.86495177 19 20 C18.34 20.33 17.68 20.66 17 21 C17.66 14.4 18.32 7.8 19 1 C13.06 1 7.12 1 1 1 C1 3.97 1 6.94 1 10 C-1.5 13.0625 -1.5 13.0625 -4 15 C-4.66 14.67 -5.32 14.34 -6 14 C-5.36578125 13.79632813 -4.7315625 13.59265625 -4.078125 13.3828125 C-1.70935435 12.12778129 -1.70935435 12.12778129 -1.171875 9.1796875 C-0.96304688 7.54386719 -0.96304688 7.54386719 -0.75 5.875 C-0.5025 3.93625 -0.255 1.9975 0 0 Z " fill="#379FDD" transform="translate(797,349)"/>
<path d="M0 0 C6.93 0 13.86 0 21 0 C21 3.96 21 7.92 21 12 C20.67 12 20.34 12 20 12 C20 8.7 20 5.4 20 2 C14.06 2 8.12 2 2 2 C1.67 3.98 1.34 5.96 1 8 C0.34 8 -0.32 8 -1 8 C-0.67 5.36 -0.34 2.72 0 0 Z " fill="#2B99DC" transform="translate(1124,353)"/>
<path d="M0 0 C0.69746338 0.00346436 1.39492676 0.00692871 2.11352539 0.01049805 C7.72162301 0.12843295 12.06749398 0.91683925 17.125 3.3125 C17.62 4.7975 17.62 4.7975 18.125 6.3125 C17.58875 6.0959375 17.0525 5.879375 16.5 5.65625 C6.35775871 2.05308533 -4.66275595 1.98789137 -14.875 5.3125 C-14.875 4.3225 -14.875 3.3325 -14.875 2.3125 C-9.85015952 0.67453252 -5.30573884 -0.04284494 0 0 Z " fill="#C8EDFA" transform="translate(784.875,288.6875)"/>
<path d="M0 0 C0.66 0.33 1.32 0.66 2 1 C-6.83954125 6.80094894 -14.54298542 7.92792621 -25 7 C-28.20505211 6.24942252 -30.9462721 5.26361154 -34 4 C-31.29559752 2.64779876 -29.93872668 3.38897762 -27 4 C-18.76655556 4.46400801 -9.34914062 4.81533717 -1.84765625 0.8671875 C-0.93306641 0.43792969 -0.93306641 0.43792969 0 0 Z " fill="#4EACE3" transform="translate(923,383)"/>
<path d="M0 0 C0.33 0.66 0.66 1.32 1 2 C1.66 2 2.32 2 3 2 C3 5.96 3 9.92 3 14 C-4.59 14.33 -12.18 14.66 -20 15 C-15.18856169 11.79237446 -10.87584248 11.880042 -5.1875 11.9375 C-4.02605469 11.94652344 -2.86460937 11.95554687 -1.66796875 11.96484375 C-0.78753906 11.97644531 0.09289062 11.98804688 1 12 C0.67 8.04 0.34 4.08 0 0 Z " fill="#47A8E3" transform="translate(715,317)"/>
<path d="M0 0 C-0.44602291 6.69034366 -3.07345542 12.02812122 -6 18 C-6.66 18 -7.32 18 -8 18 C-7.38855422 6.15060241 -7.38855422 6.15060241 -4 1 C-2 0 -2 0 0 0 Z " fill="#E3F1F4" transform="translate(216,247)"/>
<path d="M0 0 C1.9375 0.5 1.9375 0.5 4 2 C4.68790422 4.69658452 4.81946464 7.2017019 5 10 C9.95 10 14.9 10 20 10 C20.33 10.66 20.66 11.32 21 12 C15.06 12 9.12 12 3 12 C2.67 8.7 2.34 5.4 2 2 C1.01 2.33 0.02 2.66 -1 3 C-0.67 2.01 -0.34 1.02 0 0 Z " fill="#309EE1" transform="translate(606,375)"/>
<path d="M0 0 C0.33 0 0.66 0 1 0 C1.01981934 0.71542969 1.03963867 1.43085938 1.06005859 2.16796875 C1.15599327 5.4456486 1.26539298 8.72275001 1.375 12 C1.4059375 13.12535156 1.436875 14.25070312 1.46875 15.41015625 C1.68570675 21.59342354 2.23168346 27.07093866 4 33 C4.28101563 34.051875 4.56203125 35.10375 4.8515625 36.1875 C5.10679687 37.115625 5.36203125 38.04375 5.625 39 C5.88539063 39.94875 6.14578125 40.8975 6.4140625 41.875 C6.70410156 42.926875 6.70410156 42.926875 7 44 C4.29484704 42.36964513 3.14226393 41.35774655 1.9597168 38.3840332 C0.07448891 29.88764941 -0.36549828 21.87290325 -0.1875 13.1875 C-0.17396484 11.91068359 -0.16042969 10.63386719 -0.14648438 9.31835938 C-0.11157893 6.21177452 -0.06255244 3.10612984 0 0 Z " fill="#ABE2F7" transform="translate(751,329)"/>
<path d="M0 0 C4.29 0 8.58 0 13 0 C13 0.66 13 1.32 13 2 C13.66 2 14.32 2 15 2 C15 12.23 15 22.46 15 33 C14.67 33 14.34 33 14 33 C14 23.1 14 13.2 14 3 C7.07 2.505 7.07 2.505 0 2 C0 1.34 0 0.68 0 0 Z " fill="#EAFEFE" transform="translate(1059,289)"/>
<path d="M0 0 C-4.80549199 4.80549199 -11.29978209 5.3976974 -17.77734375 5.45898438 C-18.67582031 5.45189453 -19.57429688 5.44480469 -20.5 5.4375 C-21.39847656 5.45748047 -22.29695313 5.47746094 -23.22265625 5.49804688 C-29.55007109 5.49344177 -33.54974518 4.21539566 -39 1 C-37.13549805 0.4128418 -37.13549805 0.4128418 -35 0 C-34.28457031 0.46019531 -33.56914062 0.92039062 -32.83203125 1.39453125 C-28.83900898 3.6581618 -25.2057445 3.56268662 -20.6875 3.6875 C-19.85154297 3.72166016 -19.01558594 3.75582031 -18.15429688 3.79101562 C-16.10332228 3.87305461 -14.05168462 3.9382151 -12 4 C-12 3.34 -12 2.68 -12 2 C-10.56656 1.46809459 -9.12804633 0.94984742 -7.6875 0.4375 C-6.48673828 0.00244141 -6.48673828 0.00244141 -5.26171875 -0.44140625 C-3 -1 -3 -1 0 0 Z " fill="#349EDD" transform="translate(409,384)"/>
<path d="M0 0 C0.33 0 0.66 0 1 0 C1.33 2.64 1.66 5.28 2 8 C1.34 8 0.68 8 0 8 C0.33 16.25 0.66 24.5 1 33 C-1.91823527 27.16352946 -2.18267622 23.10773888 -2.1875 16.75 C-2.19974609 15.91597656 -2.21199219 15.08195312 -2.22460938 14.22265625 C-2.23670765 9.08492317 -1.66346536 4.8654718 0 0 Z " fill="#2696D9" transform="translate(437,346)"/>
<path d="M0 0 C3.14581423 -0.02888514 6.29159469 -0.04675923 9.4375 -0.0625 C10.33533203 -0.07087891 11.23316406 -0.07925781 12.15820312 -0.08789062 C13.01220703 -0.09111328 13.86621094 -0.09433594 14.74609375 -0.09765625 C15.93223267 -0.10551147 15.93223267 -0.10551147 17.14233398 -0.11352539 C19 0 19 0 20 1 C20.04063832 2.66617115 20.042721 4.33388095 20 6 C20.99 6.33 21.98 6.66 23 7 C22.34 8.32 21.68 9.64 21 11 C20.34 11 19.68 11 19 11 C19 8.03 19 5.06 19 2 C12.73 2 6.46 2 0 2 C0 1.34 0 0.68 0 0 Z " fill="#C5EAFA" transform="translate(1030,291)"/>
<path d="M0 0 C0.33 0 0.66 0 1 0 C1.55353075 13.81776765 1.55353075 13.81776765 -2 19 C-2.66 19 -3.32 19 -4 19 C-4.66 20.32 -5.32 21.64 -6 23 C-9.3 23 -12.6 23 -16 23 C-16.33 22.34 -16.66 21.68 -17 21 C-16.40832031 20.98582031 -15.81664062 20.97164063 -15.20703125 20.95703125 C-10.80385693 20.69126053 -8.58532313 20.47323998 -5.0625 17.625 C-1.76829919 13.43238079 -0.71643366 11.1047217 -0.375 5.8125 C-0.30023437 4.72582031 -0.22546875 3.63914062 -0.1484375 2.51953125 C-0.09945312 1.68808594 -0.05046875 0.85664063 0 0 Z " fill="#2F9CDD" transform="translate(717,346)"/>
<path d="M0 0 C5.75 0.875 5.75 0.875 8 2 C9.59447464 2.08400529 11.19240545 2.10727467 12.7890625 2.09765625 C14.20058594 2.09282227 14.20058594 2.09282227 15.640625 2.08789062 C17.11789062 2.07532227 17.11789062 2.07532227 18.625 2.0625 C20.11386719 2.05573242 20.11386719 2.05573242 21.6328125 2.04882812 C24.0886016 2.03702145 26.54427104 2.020554 29 2 C29 2.66 29 3.32 29 4 C24.42321773 5.14191174 19.99783009 5.18352601 15.3125 5.1875 C14.15524414 5.20586914 14.15524414 5.20586914 12.97460938 5.22460938 C10.98167293 5.22983104 8.98916662 5.1226341 7 5 C6.34 4.34 5.68 3.68 5 3 C2.42938689 2.35232207 2.42938689 2.35232207 0 2 C0 1.34 0 0.68 0 0 Z " fill="#C1E8F8" transform="translate(1096,386)"/>
<path d="M0 0 C0.33 0 0.66 0 1 0 C1 13.86 1 27.72 1 42 C-4 39 -4 39 -6 36 C-4.02 36.66 -2.04 37.32 0 38 C0 25.46 0 12.92 0 0 Z " fill="#D8F6FC" transform="translate(604,257)"/>
<path d="M0 0 C2.31 0 4.62 0 7 0 C7 6.93 7 13.86 7 21 C6.34 21.33 5.68 21.66 5 22 C5 15.4 5 8.8 5 2 C3.35 2 1.7 2 0 2 C0 1.34 0 0.68 0 0 Z " fill="#299AE0" transform="translate(1015,365)"/>
<path d="M0 0 C0.97066406 0.07863281 1.94132812 0.15726563 2.94140625 0.23828125 C5.4375 0.6875 5.4375 0.6875 7.4375 2.6875 C6.62667969 2.73648438 5.81585938 2.78546875 4.98046875 2.8359375 C-1.54887336 3.27680111 -7.82753329 3.97877047 -14.22265625 5.3828125 C-16.5625 5.6875 -16.5625 5.6875 -20.5625 4.6875 C-16.6025 4.0275 -12.6425 3.3675 -8.5625 2.6875 C-8.5625 2.0275 -8.5625 1.3675 -8.5625 0.6875 C-5.3149538 -0.3950154 -3.37989096 -0.30153488 0 0 Z " fill="#60809F" transform="translate(249.5625,197.3125)"/>
<path d="M0 0 C1.65 0.66 3.3 1.32 5 2 C5 2.99 5 3.98 5 5 C4.3702124 4.99476318 3.7404248 4.98952637 3.09155273 4.98413086 C0.20687885 4.96319862 -2.67777898 4.9502885 -5.5625 4.9375 C-6.55314453 4.92912109 -7.54378906 4.92074219 -8.56445312 4.91210938 C-13.82548699 4.89463086 -18.81764665 5.07691602 -24 6 C-24 6.66 -24 7.32 -24 8 C-25.32 7.67 -26.64 7.34 -28 7 C-21.41424568 3.50128656 -15.85193098 2.36967534 -8.4375 2.25 C-7.52419922 2.22035156 -6.61089844 2.19070312 -5.66992188 2.16015625 C-3.44653077 2.0903115 -1.22413532 2.03720255 1 2 C0.67 1.34 0.34 0.68 0 0 Z " fill="#B6DEF5" transform="translate(262,217)"/>
<path d="M0 0 C-1.59576199 1.50893816 -3.20189911 3.00691076 -4.8125 4.5 C-5.70582031 5.3353125 -6.59914063 6.170625 -7.51953125 7.03125 C-10 9 -10 9 -13 9 C-13.12375 9.639375 -13.2475 10.27875 -13.375 10.9375 C-13.58125 11.618125 -13.7875 12.29875 -14 13 C-14.99 13.495 -14.99 13.495 -16 14 C-15.49518575 9.74619757 -14.30463662 7.78100965 -11.25 4.8125 C-10.57453125 4.13832031 -9.8990625 3.46414063 -9.203125 2.76953125 C-3.54693878 -1.77346939 -3.54693878 -1.77346939 0 0 Z " fill="#41A7E2" transform="translate(696,293)"/>
<path d="M0 0 C18.04100228 -0.55353075 18.04100228 -0.55353075 25 3 C25 3.66 25 4.32 25 5 C25.61875 5.144375 26.2375 5.28875 26.875 5.4375 C29 6 29 6 31 7 C31 7.66 31 8.32 31 9 C25.25 7.25 25.25 7.25 23 5 C15.54037833 2.205984 7.90232392 1.3999431 0 1 C0 0.67 0 0.34 0 0 Z " fill="#C3E6F7" transform="translate(231,208)"/>
<path d="M0 0 C0.66 0.66 1.32 1.32 2 2 C1.443125 1.96777344 0.88625 1.93554688 0.3125 1.90234375 C-3.81557141 1.96510159 -6.19107608 2.29601038 -9.37890625 5.0703125 C-11.35047957 7.32051604 -13.21849022 9.59714621 -15 12 C-15.33 11.34 -15.66 10.68 -16 10 C-12.75332647 1.70294542 -8.56895562 -0.84284809 0 0 Z " fill="#BAE5F8" transform="translate(909,291)"/>
<path d="M0 0 C0.33 0 0.66 0 1 0 C1.65720455 8.05075569 -0.77071154 15.35672529 -3 23 C-3.66 23 -4.32 23 -5 23 C-4.354523 15.09290669 -2.13002861 7.60866033 0 0 Z " fill="#53A2DE" transform="translate(194,256)"/>
<path d="M0 0 C1.52940834 4.36973811 0.14977331 6.85596882 -1.74609375 10.87890625 C-3.37289097 13.63077818 -5.37033786 15.22320125 -8 17 C-8.33 17.66 -8.66 18.32 -9 19 C-10.32 18.67 -11.64 18.34 -13 18 C-11.71034824 16.62437146 -10.37310707 15.29233607 -9 14 C-8.34 14 -7.68 14 -7 14 C-6.72414063 13.44828125 -6.44828125 12.8965625 -6.1640625 12.328125 C-4.109375 8.21875 -2.0546875 4.109375 0 0 Z " fill="#BEE8F8" transform="translate(421,366)"/>
<path d="M0 0 C0.66 0.66 1.32 1.32 2 2 C0.845 1.979375 -0.31 1.95875 -1.5 1.9375 C-6.89839954 2.53517995 -9.26602091 6.04138347 -12.53125 10.06640625 C-13.25828125 11.02353516 -13.25828125 11.02353516 -14 12 C-14.33 11.34 -14.66 10.68 -15 10 C-12.05323407 2.46937597 -8.24974784 -0.93393372 0 0 Z " fill="#C3EBF9" transform="translate(392,291)"/>
<path d="M0 0 C1.11375 0.7425 1.11375 0.7425 2.25 1.5 C8.40811434 4.61580009 16.49052241 3.48105545 23 2 C20.77351401 4.56045889 19.31330534 5.38599586 16 6 C14.16925828 6.11576749 12.3343551 6.17490141 10.5 6.1875 C9.5615625 6.20167969 8.623125 6.21585937 7.65625 6.23046875 C4.90682394 5.99191561 3.29453903 5.5103961 1 4 C0.25 1.875 0.25 1.875 0 0 Z " fill="#B8E4F7" transform="translate(998,385)"/>
<path d="M0 0 C4.90494309 7.35741464 7.30063498 16.61776125 10 25 C3.9351188 19.21079522 1.6291643 12.05942641 0 4 C0 2.68 0 1.36 0 0 Z " fill="#62ACE1" transform="translate(204,342)"/>
<path d="M0 0 C0.66 0.33 1.32 0.66 2 1 C0.68 1.33 -0.64 1.66 -2 2 C-2.061875 2.61875 -2.12375 3.2375 -2.1875 3.875 C-3 6 -3 6 -5.5625 7.25 C-6.366875 7.4975 -7.17125 7.745 -8 8 C-8 8.66 -8 9.32 -8 10 C-8.99 10 -9.98 10 -11 10 C-11 10.66 -11 11.32 -11 12 C-11.66 12 -12.32 12 -13 12 C-11.56875447 8.64065168 -9.82271696 6.68207173 -7.0625 4.3125 C-6.37285156 3.71050781 -5.68320313 3.10851562 -4.97265625 2.48828125 C-3 1 -3 1 0 0 Z " fill="#52A3DD" transform="translate(225,211)"/>
<path d="M0 0 C0.33 0.66 0.66 1.32 1 2 C0.26305897 4.00852555 -0.56397594 5.98449906 -1.4375 7.9375 C-3.4551831 12.30725564 -3.4551831 12.30725564 -4 17 C-3.34 16.67 -2.68 16.34 -2 16 C-3 18 -4 20 -5 22 C-5.66 22 -6.32 22 -7 22 C-6.41509121 15.85845775 -5.45933748 9.99320151 -4 4 C-3.01 4 -2.02 4 -1 4 C-0.67 2.68 -0.34 1.36 0 0 Z " fill="#A2B5C6" transform="translate(215,197)"/>
<path d="M0 0 C0.6015625 1.87109375 0.6015625 1.87109375 1 4 C-1.5205129 7.19911253 -4.53183047 8.95466925 -8 11 C-8.515625 11.5775 -9.03125 12.155 -9.5625 12.75 C-10.2740625 13.36875 -10.2740625 13.36875 -11 14 C-13.1875 13.6875 -13.1875 13.6875 -15 13 C-14.195625 12.525625 -13.39125 12.05125 -12.5625 11.5625 C-7.774823 8.40515905 -3.95500749 4.11320779 0 0 Z " fill="#B9DFF6" transform="translate(265,378)"/>
<path d="M0 0 C0.33 0 0.66 0 1 0 C1.01981934 0.81154541 1.03963867 1.62309082 1.06005859 2.45922852 C1.15571837 6.16062749 1.26523214 9.86149365 1.375 13.5625 C1.4059375 14.83931641 1.436875 16.11613281 1.46875 17.43164062 C1.6609691 23.59867011 1.84925311 29.18598909 4 35 C3.34 34.67 2.68 34.34 2 34 C2 33.34 2 32.68 2 32 C1.34 32 0.68 32 0 32 C0 21.44 0 10.88 0 0 Z " fill="#41A3DE" transform="translate(773,326)"/>
<path d="M0 0 C1.12148438 -0.01417969 2.24296875 -0.02835937 3.3984375 -0.04296875 C6.57384842 0.18384632 8.76734718 0.83359332 11.625 2.1875 C11.625 2.5175 11.625 2.8475 11.625 3.1875 C3.705 3.1875 -4.215 3.1875 -12.375 3.1875 C-8.0742674 0.32034493 -5.0753871 0.0290354 0 0 Z " fill="#63B6E7" transform="translate(904.375,260.8125)"/>
<path d="M0 0 C2.31 0 4.62 0 7 0 C7.33 1.65 7.66 3.3 8 5 C8.78375 5.12375 9.5675 5.2475 10.375 5.375 C13 6 13 6 15 8 C8.78543496 7.78194509 5.80787229 6.60730998 1.25 2.375 C0 1 0 1 0 0 Z " fill="#D4EDF7" transform="translate(222,375)"/>
<path d="M0 0 C1.87853919 2.81780879 2.57489844 4.66826651 3.4375 7.875 C4.5178988 11.67578757 5.8999549 14.63992784 8 18 C7.67 18.66 7.34 19.32 7 20 C2.60424223 16.51370936 1.20306469 12.31130781 0 7 C-0.20624974 4.59521581 -0.15434373 2.41805175 0 0 Z " fill="#446489" transform="translate(221,288)"/>
<path d="M0 0 C0.66 0.33 1.32 0.66 2 1 C1.57847656 1.53109375 1.15695312 2.0621875 0.72265625 2.609375 C0.17480469 3.31578125 -0.37304688 4.0221875 -0.9375 4.75 C-1.48277344 5.44609375 -2.02804687 6.1421875 -2.58984375 6.859375 C-3.97425654 8.96092128 -4.56286987 10.54321799 -5 13 C-5.66 13 -6.32 13 -7 13 C-7 12.01 -7 11.02 -7 10 C-8.98 10.99 -8.98 10.99 -11 12 C-9.38405168 9.95880212 -7.7143618 7.95927063 -6 6 C-5.34 6 -4.68 6 -4 6 C-3.71125 5.38125 -3.4225 4.7625 -3.125 4.125 C-2 2 -2 2 0 0 Z " fill="#7DB6DA" transform="translate(273,365)"/>
<path d="M0 0 C0 0.66 0 1.32 0 2 C-1.609375 3.3671875 -1.609375 3.3671875 -3.75 4.875 C-6.76672537 7.05731197 -9.46483146 9.25356742 -12 12 C-11.56643364 7.08624792 -9.39377542 4.47270043 -6 1 C-3.75805718 0.10322287 -2.38503639 0 0 0 Z " fill="#2198DF" transform="translate(691,334)"/>
<path d="M0 0 C1.32 0.33 2.64 0.66 4 1 C3.01 2.485 3.01 2.485 2 4 C0.35 4.33 -1.3 4.66 -3 5 C-3 8.96 -3 12.92 -3 17 C-3.66 17 -4.32 17 -5 17 C-5.76681614 7.42331839 -5.76681614 7.42331839 -3.88671875 3.93359375 C-2.5 2.3125 -2.5 2.3125 0 0 Z " fill="#A6D9F2" transform="translate(462,348)"/>
<path d="M0 0 C1.46083008 0.00290039 1.46083008 0.00290039 2.95117188 0.00585938 C3.96630859 0.01810547 4.98144531 0.03035156 6.02734375 0.04296875 C7.04634766 0.04361328 8.06535156 0.04425781 9.11523438 0.04492188 C16.68403389 0.09006382 16.68403389 0.09006382 18.96484375 1.23046875 C18.96484375 1.89046875 18.96484375 2.55046875 18.96484375 3.23046875 C17.85109375 3.06675781 16.73734375 2.90304687 15.58984375 2.734375 C10.7050486 2.12377561 5.8808923 2.11888378 0.96484375 2.16796875 C0.09472656 2.17248047 -0.77539062 2.17699219 -1.671875 2.18164062 C-3.79299918 2.19329515 -5.91408735 2.21122518 -8.03515625 2.23046875 C-4.75802642 0.04571553 -3.79648241 -0.01746375 0 0 Z " fill="#A3DAF5" transform="translate(465.03515625,289.76953125)"/>
<path d="M0 0 C0.33 0 0.66 0 1 0 C0.32545897 7.8246759 -1.26876958 15.34556614 -3 23 C-3.33 23 -3.66 23 -4 23 C-4.45506043 15.41565957 -2.91839874 8.3256988 -1 1 C-0.67 0.67 -0.34 0.34 0 0 Z " fill="#55A2DB" transform="translate(204,268)"/>
<path d="M0 0 C0.66 0 1.32 0 2 0 C1.61969322 4.27845131 1.19293962 7.79488752 -1.9140625 10.93359375 C-3.89555099 12.39345364 -5.88360352 13.74492767 -8 15 C-6.77323093 12.44146812 -5.50737649 10.29004258 -3.875 7.9375 C-1.73098227 5.15935564 -1.73098227 5.15935564 -2 2 C-1.34 1.34 -0.68 0.68 0 0 Z " fill="#CDE5EF" transform="translate(276,361)"/>
<path d="M0 0 C6.6 0.66 13.2 1.32 20 2 C17.3381996 4.6618004 15.95750737 4.29866602 12.25 4.3125 C7.27997339 4.24679051 4.12011479 3.74674319 0 1 C0 0.67 0 0.34 0 0 Z " fill="#6B87A1" transform="translate(237,351)"/>
<path d="M0 0 C0.66 0 1.32 0 2 0 C1.690625 1.27875 1.38125 2.5575 1.0625 3.875 C-0.06114833 8.88758722 -0.59422581 13.88510956 -1 19 C-1.66 19 -2.32 19 -3 19 C-3 15.37 -3 11.74 -3 8 C-2.34 8 -1.68 8 -1 8 C-1.020625 6.865625 -1.04125 5.73125 -1.0625 4.5625 C-1 1 -1 1 0 0 Z " fill="#C6EEFC" transform="translate(438,303)"/>
<path d="M0 0 C0.33 0 0.66 0 1 0 C1.02899599 3.77081722 1.04679729 7.54160583 1.0625 11.3125 C1.07087891 12.38435547 1.07925781 13.45621094 1.08789062 14.56054688 C1.09111328 15.58857422 1.09433594 16.61660156 1.09765625 17.67578125 C1.10289307 18.62364502 1.10812988 19.57150879 1.11352539 20.5480957 C1 23 1 23 0 26 C-0.66 26 -1.32 26 -2 26 C-1.34 17.42 -0.68 8.84 0 0 Z " fill="#2593D9" transform="translate(606,331)"/>
<path d="M0 0 C3 1 3 1 5 4 C5.26655603 7.68380428 5.08702669 11.30136581 5 15 C0.71 15 -3.58 15 -8 15 C-8 14.67 -8 14.34 -8 14 C-4.04 14 -0.08 14 4 14 C3.896875 12.55625 3.79375 11.1125 3.6875 9.625 C3.62949219 8.81289063 3.57148437 8.00078125 3.51171875 7.1640625 C3.17009472 4.62078662 3.17009472 4.62078662 0 3 C0 2.01 0 1.02 0 0 Z " fill="#B8E5F7" transform="translate(987,314)"/>
<path d="M0 0 C0.66 0 1.32 0 2 0 C1.79503906 1.00160156 1.59007812 2.00320313 1.37890625 3.03515625 C1.10666588 4.37758289 0.8345364 5.72003201 0.5625 7.0625 C0.42779297 7.71927734 0.29308594 8.37605469 0.15429688 9.05273438 C-0.71470632 13.35535995 -1.4172492 17.64917124 -2 22 C-2.33 22 -2.66 22 -3 22 C-3.27986484 14.69241816 -3.3455101 6.6910202 0 0 Z " fill="#BAE5F7" transform="translate(869,286)"/>
<path d="M0 0 C5.61 0 11.22 0 17 0 C14 3 14 3 11.15234375 3.3984375 C10.09144531 3.39070313 9.03054688 3.38296875 7.9375 3.375 C6.87402344 3.38273437 5.81054688 3.39046875 4.71484375 3.3984375 C3.81894531 3.26695312 2.92304687 3.13546875 2 3 C1.34 2.01 0.68 1.02 0 0 Z " fill="#B6E2F5" transform="translate(727,388)"/>
<path d="M0 0 C0.66 0.99 1.32 1.98 2 3 C1.236875 3.639375 0.47375 4.27875 -0.3125 4.9375 C-3.75063236 8.31702783 -4.77913674 12.44409563 -6 17 C-7.30249153 13.40144968 -6.69931441 11.41900527 -5.25 7.9375 C-4.73179687 6.65166016 -4.73179687 6.65166016 -4.203125 5.33984375 C-3.03735083 3.07264009 -1.90347394 1.66827457 0 0 Z " fill="#349EDF" transform="translate(959,337)"/>
<path d="M0 0 C0.99 0.495 0.99 0.495 2 1 C3.39081535 7.25866905 3.09429082 13.61965445 3 20 C-0.99717123 14.00424316 -0.1114696 6.96065698 0 0 Z " fill="#D9F2FB" transform="translate(201,318)"/>
<path d="M0 0 C0.33 0 0.66 0 1 0 C1 1.98 1 3.96 1 6 C4.68802044 4.77065985 5.72356973 3.06140622 8 0 C8.66 0.33 9.32 0.66 10 1 C9.2884375 1.6496875 9.2884375 1.6496875 8.5625 2.3125 C6.76313043 4.02309613 6.76313043 4.02309613 6 7 C5.01 7 4.02 7 3 7 C2.67 8.65 2.34 10.3 2 12 C-0.13586678 8.79619983 -0.23132175 7.98060033 -0.125 4.3125 C-0.10695313 3.50425781 -0.08890625 2.69601562 -0.0703125 1.86328125 C-0.04710937 1.24839844 -0.02390625 0.63351562 0 0 Z " fill="#86CDF0" transform="translate(532,293)"/>
<path d="M0 0 C3.38558575 5.07837863 3.29242232 10.0540795 3 16 C2.34 16.66 1.68 17.32 1 18 C0.10395632 11.95170514 -0.11269443 6.1105424 0 0 Z " fill="#2E9DDF" transform="translate(939,290)"/>
<path d="M0 0 C0.33 0.99 0.66 1.98 1 3 C0.01 3 -0.98 3 -2 3 C-2 3.66 -2 4.32 -2 5 C-5 4 -5 4 -6 3 C-8.69235776 2.76321284 -11.36498156 2.57801975 -14.0625 2.4375 C-14.82111328 2.39431641 -15.57972656 2.35113281 -16.36132812 2.30664062 C-18.24065438 2.20026367 -20.12030244 2.09960066 -22 2 C-22 1.67 -22 1.34 -22 1 C-18.89585298 0.97096423 -15.79174091 0.9531893 -12.6875 0.9375 C-11.80642578 0.92912109 -10.92535156 0.92074219 -10.01757812 0.91210938 C-9.17001953 0.90888672 -8.32246094 0.90566406 -7.44921875 0.90234375 C-6.27879028 0.89448853 -6.27879028 0.89448853 -5.0847168 0.88647461 C-3 1 -3 1 0 2 C0 1.34 0 0.68 0 0 Z " fill="#EBF8FA" transform="translate(267,220)"/>
<path d="M0 0 C0.66 0.33 1.32 0.66 2 1 C0.7260411 3.03833424 -0.61061923 5.03852126 -2 7 C-2.66 7 -3.32 7 -4 7 C-4 7.66 -4 8.32 -4 9 C-4.99 9.33 -5.98 9.66 -7 10 C-7.33 10.99 -7.66 11.98 -8 13 C-8.66 13 -9.32 13 -10 13 C-8.65515286 8.95838045 -6.9494838 6.61321846 -3.875 3.6875 C-3.15054688 2.99011719 -2.42609375 2.29273438 -1.6796875 1.57421875 C-1.12539063 1.05472656 -0.57109375 0.53523438 0 0 Z " fill="#4FADE2" transform="translate(768,294)"/>
<path d="M0 0 C-1.44077046 3.36179774 -3.24750021 5.59156268 -6 8 C-6.66 8 -7.32 8 -8 8 C-8 8.99 -8 9.98 -8 11 C-8.66 11 -9.32 11 -10 11 C-8.3679875 6.23996354 -5.76603973 0 0 0 Z " fill="#49ABE3" transform="translate(1061,291)"/>
<path d="M0 0 C0.66 0 1.32 0 2 0 C2 3.63 2 7.26 2 11 C1.67 10.01 1.34 9.02 1 8 C0.34 8 -0.32 8 -1 8 C-1 7.34 -1 6.68 -1 6 C-1.66 6 -2.32 6 -3 6 C-1.125 1.125 -1.125 1.125 0 0 Z " fill="#234C7E" transform="translate(216,252)"/>
<path d="M0 0 C0.66 0 1.32 0 2 0 C3.47265625 2.01171875 3.47265625 2.01171875 5.0625 4.6875 C5.58972656 5.55761719 6.11695313 6.42773438 6.66015625 7.32421875 C7.96711737 9.9343306 8.58056486 12.12609257 9 15 C6.63719073 12.85199157 5.41659766 10.83319533 4 8 C3.34 7.67 2.68 7.34 2 7 C1.26924352 4.6859378 0.59861742 2.35171131 0 0 Z " fill="#4CAAE1" transform="translate(1005,297)"/>
<path d="M0 0 C0.84755859 0.00322266 1.69511719 0.00644531 2.56835938 0.00976562 C3.8899707 0.02233398 3.8899707 0.02233398 5.23828125 0.03515625 C6.57729492 0.04192383 6.57729492 0.04192383 7.94335938 0.04882812 C10.14590112 0.06060642 12.34830724 0.07705461 14.55078125 0.09765625 C14.55078125 0.42765625 14.55078125 0.75765625 14.55078125 1.09765625 C13.47699219 1.14664062 12.40320313 1.195625 11.296875 1.24609375 C9.86065483 1.32119023 8.42445806 1.39673501 6.98828125 1.47265625 C6.28380859 1.50359375 5.57933594 1.53453125 4.85351562 1.56640625 C0.13782384 1.82718183 -3.95307371 2.64423748 -8.44921875 4.09765625 C-8.11921875 3.10765625 -7.78921875 2.11765625 -7.44921875 1.09765625 C-4.6251011 0.1562837 -2.92003843 -0.01959757 0 0 Z " fill="#A6DCF7" transform="translate(975.44921875,289.90234375)"/>
<path d="M0 0 C1.20366211 0.00483398 1.20366211 0.00483398 2.43164062 0.00976562 C3.68170898 0.02233398 3.68170898 0.02233398 4.95703125 0.03515625 C5.80201172 0.03966797 6.64699219 0.04417969 7.51757812 0.04882812 C9.6015928 0.06060222 11.68557102 0.07853735 13.76953125 0.09765625 C13.76953125 0.42765625 13.76953125 0.75765625 13.76953125 1.09765625 C12.84011719 1.14664062 11.91070313 1.195625 10.953125 1.24609375 C1.69292192 1.79442771 1.69292192 1.79442771 -7.23046875 4.09765625 C-7.23046875 3.10765625 -7.23046875 2.11765625 -7.23046875 1.09765625 C-4.46481493 0.17577164 -2.84763173 -0.02019597 0 0 Z " fill="#AEDFF6" transform="translate(777.23046875,289.90234375)"/>
<path d="M0 0 C0.66 0.33 1.32 0.66 2 1 C0.07794768 4.65189941 -1.22037054 6.36216057 -5 8 C-5.33 8.66 -5.66 9.32 -6 10 C-6.66 10 -7.32 10 -8 10 C-6.34908222 5.70761377 -3.26245434 3.1206085 0 0 Z " fill="#40A6E3" transform="translate(884,267)"/>
<path d="M0 0 C0.99 0.495 0.99 0.495 2 1 C2 1.99 2 2.98 2 4 C2.66 4 3.32 4 4 4 C4.33 7.63 4.66 11.26 5 15 C4.01 15 3.02 15 2 15 C1.34 10.05 0.68 5.1 0 0 Z " fill="#42A3DD" transform="translate(400,299)"/>
<path d="M0 0 C0.53625 0.268125 1.0725 0.53625 1.625 0.8125 C0.696875 1.410625 -0.23125 2.00875 -1.1875 2.625 C-4.24734552 4.58195981 -4.24734552 4.58195981 -6.0625 6.5 C-7.375 7.8125 -7.375 7.8125 -10.375 8.8125 C-8.77644306 4.49639627 -4.93422816 -0.38954433 0 0 Z " fill="#46A8DF" transform="translate(967.375,294.1875)"/>
<path d="M0 0 C4.12751449 0.60698743 7.3321148 2.03810791 11 4 C11 4.99 11 5.98 11 7 C6.00724943 5.72278474 3.42388092 3.82669043 0 0 Z " fill="#55A4DD" transform="translate(215,387)"/>
<path d="M0 0 C0.33 0.66 0.66 1.32 1 2 C-1.0625 4.5 -1.0625 4.5 -4 7 C-7.8125 7.3125 -7.8125 7.3125 -11 7 C-7.78601163 4.24515283 -4.97689767 2.43610194 -1 1 C-0.67 0.67 -0.34 0.34 0 0 Z " fill="#519FD7" transform="translate(266,374)"/>
<path d="M0 0 C0.66 0 1.32 0 2 0 C2.21192221 5.19209404 1.5912689 9.126739 0 14 C-0.33 14 -0.66 14 -1 14 C-1.18451025 4.58997722 -1.18451025 4.58997722 0 0 Z " fill="#C3EBF8" transform="translate(918,337)"/>
<path d="M0 0 C4.29 0 8.58 0 13 0 C13 0.99 13 1.98 13 3 C8.71 2.67 4.42 2.34 0 2 C0 1.34 0 0.68 0 0 Z " fill="#BAE5F7" transform="translate(1059,289)"/>
<path d="M0 0 C-4.45029503 3.52954433 -7.54880215 4.12313116 -13.1875 4.0625 C-14.81751953 4.04896484 -14.81751953 4.04896484 -16.48046875 4.03515625 C-17.31191406 4.02355469 -18.14335937 4.01195312 -19 4 C-19 3.67 -19 3.34 -19 3 C-18.32453125 2.95101563 -17.6490625 2.90203125 -16.953125 2.8515625 C-16.06109375 2.77679688 -15.1690625 2.70203125 -14.25 2.625 C-13.36828125 2.55539062 -12.4865625 2.48578125 -11.578125 2.4140625 C-7.23220283 1.71608106 -4.5969451 -0.25538584 0 0 Z " fill="#65AADE" transform="translate(248,392)"/>
<path d="M0 0 C0 0.33 0 0.66 0 1 C-1.85625 1.4021875 -1.85625 1.4021875 -3.75 1.8125 C-6.50208842 2.4811412 -7.94769485 2.96077114 -10.25 4.6875 C-12 6 -12 6 -14.25 5.6875 C-14.8275 5.460625 -15.405 5.23375 -16 5 C-10.26735905 1.05084735 -6.97077402 -0.13152404 0 0 Z " fill="#5EB4E5" transform="translate(591,290)"/>
<path d="M0 0 C0.33 0 0.66 0 1 0 C1.22893297 3.03336186 1.36475845 5.97465051 1 9 C-1 11.0625 -1 11.0625 -3 12 C-2.49202991 7.6822542 -1.80317221 3.96697886 0 0 Z " fill="#2B4F7B" transform="translate(213,203)"/>
<path d="M0 0 C-2 2 -2 2 -4.3828125 2.1953125 C-5.28773438 2.17210937 -6.19265625 2.14890625 -7.125 2.125 C-8.49011719 2.09792969 -8.49011719 2.09792969 -9.8828125 2.0703125 C-10.58148437 2.04710937 -11.28015625 2.02390625 -12 2 C-12.33 1.34 -12.66 0.68 -13 0 C-11.58456585 -0.19658808 -10.16755969 -0.38187546 -8.75 -0.5625 C-7.96109375 -0.66691406 -7.1721875 -0.77132813 -6.359375 -0.87890625 C-3.99467126 -1.00027349 -2.2488963 -0.69633257 0 0 Z " fill="#2199DE" transform="translate(713,367)"/>
<path d="M0 0 C0.33 0 0.66 0 1 0 C1.02703381 1.93742341 1.04641125 3.87495479 1.0625 5.8125 C1.07410156 6.89144531 1.08570313 7.97039062 1.09765625 9.08203125 C1 12 1 12 0 15 C-0.99 15.33 -1.98 15.66 -3 16 C-2.01 10.72 -1.02 5.44 0 0 Z " fill="#B9E6F7" transform="translate(425,350)"/>
<path d="M0 0 C0.66 0.33 1.32 0.66 2 1 C0.7934375 2.546875 0.7934375 2.546875 -0.4375 4.125 C-2.77799296 7.37127696 -3.70358711 9.94902383 -4 14 C-4.33 14 -4.66 14 -5 14 C-5.602537 7.01057082 -5.602537 7.01057082 -3.88671875 4.1328125 C-2.66254412 2.69138998 -1.33721771 1.33721771 0 0 Z " fill="#B4E6F8" transform="translate(703,348)"/>
<path d="M0 0 C0.33 0.66 0.66 1.32 1 2 C-0.5625 5 -0.5625 5 -3 8 C-6.75 8.375 -6.75 8.375 -10 8 C-6.66666667 5.33333333 -3.33333333 2.66666667 0 0 Z " fill="#C3D0DD" transform="translate(272,344)"/>
<path d="M0 0 C0.66 0 1.32 0 2 0 C1.34 1.98 0.68 3.96 0 6 C-0.66 6 -1.32 6 -2 6 C-2.66 7.32 -3.32 8.64 -4 10 C-4.8125 8.375 -4.8125 8.375 -5 6 C-2.6875 2.75 -2.6875 2.75 0 0 Z " fill="#40A7E1" transform="translate(443,336)"/>
<path d="M0 0 C0.33 0 0.66 0 1 0 C1.53181175 2.24743045 2.05007126 4.49807102 2.5625 6.75 C2.85253906 8.00296875 3.14257812 9.2559375 3.44140625 10.546875 C3.93444283 13.59473748 4.07666879 15.17641828 3 18 C0.22528921 11.75690073 -0.37634203 6.80203375 0 0 Z " fill="#C1E5F6" transform="translate(188,326)"/>
<path d="M0 0 C0 0.33 0 0.66 0 1 C-2.31 1 -4.62 1 -7 1 C-7 1.99 -7 2.98 -7 4 C-7.99 4.495 -7.99 4.495 -9 5 C-9.33 5.99 -9.66 6.98 -10 8 C-10.66 8 -11.32 8 -12 8 C-11.65447612 5.44312331 -11.24912987 3.42498625 -9.9375 1.1875 C-6.75444301 -0.7634059 -3.67569327 -0.1807718 0 0 Z " fill="#DFF6FC" transform="translate(471,314)"/>
<path d="M0 0 C1.43739513 -0.02712066 2.87493863 -0.04645067 4.3125 -0.0625 C5.51326172 -0.07990234 5.51326172 -0.07990234 6.73828125 -0.09765625 C9 0 9 0 12 1 C11.67 1.99 11.34 2.98 11 4 C10.67 3.67 10.34 3.34 10 3 C8.31391034 2.92794489 6.62499341 2.91613932 4.9375 2.9375 C4.01839844 2.94652344 3.09929688 2.95554687 2.15234375 2.96484375 C1.44207031 2.97644531 0.73179687 2.98804688 0 3 C0 2.01 0 1.02 0 0 Z " fill="#319EE0" transform="translate(780,313)"/>
<path d="M0 0 C6.27 0.66 12.54 1.32 19 2 C19 2.33 19 2.66 19 3 C16.20775927 3.08071788 13.41783434 3.14035408 10.625 3.1875 C9.8309375 3.21263672 9.036875 3.23777344 8.21875 3.26367188 C6.14413852 3.29004405 4.06899135 3.15486462 2 3 C1.34 2.01 0.68 1.02 0 0 Z " fill="#DFF8FD" transform="translate(892,388)"/>
<path d="M0 0 C0.33 1.32 0.66 2.64 1 4 C0.34 4 -0.32 4 -1 4 C-1.33 5.65 -1.66 7.3 -2 9 C-3.65 9.33 -5.3 9.66 -7 10 C-6.57847656 9.44570313 -6.15695312 8.89140625 -5.72265625 8.3203125 C-5.17480469 7.59585937 -4.62695312 6.87140625 -4.0625 6.125 C-3.51722656 5.40570313 -2.97195313 4.68640625 -2.41015625 3.9453125 C-0.96035376 2.05642921 -0.96035376 2.05642921 0 0 Z " fill="#42A5E2" transform="translate(918,349)"/>
<path d="M0 0 C1 3 1 3 -0.25 6.5625 C-2 10 -2 10 -5 12 C-4.67 10.35 -4.34 8.7 -4 7 C-3.34 7 -2.68 7 -2 7 C-1.855625 6.030625 -1.71125 5.06125 -1.5625 4.0625 C-1 1 -1 1 0 0 Z " fill="#D2F2FB" transform="translate(402,344)"/>
<path d="M0 0 C1.32 0.66 2.64 1.32 4 2 C4 2.66 4 3.32 4 4 C2.68 4 1.36 4 0 4 C0 4.66 0 5.32 0 6 C-0.66 6 -1.32 6 -2 6 C-2 6.99 -2 7.98 -2 9 C-2.66 9 -3.32 9 -4 9 C-2.80100302 5.9168649 -1.52299523 2.93720508 0 0 Z " fill="#577393" transform="translate(273,305)"/>
<path d="M0 0 C0.66 0.33 1.32 0.66 2 1 C-2.81776765 8.66742597 -2.81776765 8.66742597 -8 10 C-6.34908222 5.70761377 -3.26245434 3.1206085 0 0 Z " fill="#50AEE1" transform="translate(448,294)"/>
<path d="M0 0 C0.66 0.33 1.32 0.66 2 1 C1.45730469 1.47050781 0.91460937 1.94101563 0.35546875 2.42578125 C-0.71767578 3.35970703 -0.71767578 3.35970703 -1.8125 4.3125 C-2.52019531 4.92738281 -3.22789062 5.54226562 -3.95703125 6.17578125 C-5.70136739 7.73334335 -7.36778041 9.32658875 -9 11 C-9 8.875 -9 8.875 -8 6 C-5.50224217 3.74515308 -2.80198037 1.85734917 0 0 Z " fill="#63ACE0" transform="translate(225,230)"/>
<path d="M0 0 C0 0.33 0 0.66 0 1 C-2.31 1 -4.62 1 -7 1 C-8.20628008 3.33214148 -9.1654738 5.49642139 -10 8 C-10.66 8 -11.32 8 -12 8 C-11.65447612 5.44312331 -11.24912987 3.42498625 -9.9375 1.1875 C-6.75444301 -0.7634059 -3.67569327 -0.1807718 0 0 Z " fill="#DEF6FD" transform="translate(987,314)"/>
<path d="M0 0 C0 0.33 0 0.66 0 1 C-1.051875 1.226875 -2.10375 1.45375 -3.1875 1.6875 C-7.1597906 2.79360531 -9.29599637 4.88629885 -12 8 C-11.65447612 5.44312331 -11.24912987 3.42498625 -9.9375 1.1875 C-6.75444301 -0.7634059 -3.67569327 -0.1807718 0 0 Z " fill="#E1F8FC" transform="translate(712,314)"/>
<path d="M0 0 C0.33 0 0.66 0 1 0 C1 2.97 1 5.94 1 9 C1.66 9 2.32 9 3 9 C3 10.65 3 12.3 3 14 C2.01 14 1.02 14 0 14 C0 9.38 0 4.76 0 0 Z " fill="#59B7EA" transform="translate(1048,293)"/>
<path d="M0 0 C0.66 0.33 1.32 0.66 2 1 C0.35 2.32 -1.3 3.64 -3 5 C-3.66 4.67 -4.32 4.34 -5 4 C-6.53668865 3.77532169 -8.07968054 3.59203195 -9.625 3.4375 C-10.44226563 3.35371094 -11.25953125 3.26992188 -12.1015625 3.18359375 C-12.72804687 3.12300781 -13.35453125 3.06242187 -14 3 C-14 2.67 -14 2.34 -14 2 C-13.24074219 1.93941406 -12.48148438 1.87882812 -11.69921875 1.81640625 C-10.70535156 1.73261719 -9.71148437 1.64882813 -8.6875 1.5625 C-7.70136719 1.48128906 -6.71523437 1.40007812 -5.69921875 1.31640625 C-2.90624401 1.08187441 -2.90624401 1.08187441 0 0 Z " fill="#D4EDF8" transform="translate(244,394)"/>
<path d="M0 0 C0.33 0.66 0.66 1.32 1 2 C-0.125 5 -0.125 5 -2 8 C-4.6171875 9.1875 -4.6171875 9.1875 -7 10 C-6.02223933 8.51990357 -5.0427506 7.04094856 -4.0625 5.5625 C-3.51722656 4.73878906 -2.97195313 3.91507812 -2.41015625 3.06640625 C-1 1 -1 1 0 0 Z " fill="#B5E2F7" transform="translate(935,372)"/>
<path d="M0 0 C0.33 1.32 0.66 2.64 1 4 C-1.64 6.31 -4.28 8.62 -7 11 C-7.66 10.67 -8.32 10.34 -9 10 C-8.27683594 9.29423828 -8.27683594 9.29423828 -7.5390625 8.57421875 C-6.90742187 7.95160156 -6.27578125 7.32898438 -5.625 6.6875 C-4.68527344 5.76517578 -4.68527344 5.76517578 -3.7265625 4.82421875 C-1.81913393 2.91187472 -1.81913393 2.91187472 0 0 Z " fill="#A4DBF5" transform="translate(1141,374)"/>
<path d="M0 0 C0.66 0.33 1.32 0.66 2 1 C1.67 1.66 1.34 2.32 1 3 C0.58492826 9.31645868 0.58492826 9.31645868 3 15 C1.68 14.67 0.36 14.34 -1 14 C-1.02694851 12.04174127 -1.04637218 10.08337774 -1.0625 8.125 C-1.07410156 7.03445313 -1.08570313 5.94390625 -1.09765625 4.8203125 C-1 2 -1 2 0 0 Z " fill="#329AD9" transform="translate(698,351)"/>
<path d="M0 0 C0.66 0.33 1.32 0.66 2 1 C1.26418258 2.1549921 0.51069961 3.29874185 -0.25 4.4375 C-0.66765625 5.07558594 -1.0853125 5.71367187 -1.515625 6.37109375 C-3.27248877 8.29902057 -4.46089803 8.61479436 -7 9 C-5.44499019 5.18315774 -2.96404505 2.80804268 0 0 Z " fill="#54AFE4" transform="translate(1095,294)"/>
<path d="M0 0 C0.33 0 0.66 0 1 0 C1 3.3 1 6.6 1 10 C-2.26460973 8.19587357 -3.88929795 7.16605307 -6 4 C-4.02 4.66 -2.04 5.32 0 6 C0 4.02 0 2.04 0 0 Z " fill="#B9E7F7" transform="translate(604,289)"/>
<path d="M0 0 C3 1 3 1 4.6875 4.0625 C5.120625 5.031875 5.55375 6.00125 6 7 C5.01 7 4.02 7 3 7 C3 6.34 3 5.68 3 5 C1.35 4.67 -0.3 4.34 -2 4 C-1.34 2.68 -0.68 1.36 0 0 Z " fill="#B1E2F7" transform="translate(717,378)"/>
<path d="M0 0 C0.33 0.66 0.66 1.32 1 2 C-0.1875 5.0625 -0.1875 5.0625 -2 8 C-4.1875 8.875 -4.1875 8.875 -6 9 C-6 8.34 -6 7.68 -6 7 C-5.34 7 -4.68 7 -4 7 C-3.71125 6.21625 -3.4225 5.4325 -3.125 4.625 C-2 2 -2 2 0 0 Z " fill="#B7E3F7" transform="translate(811,375)"/>
<path d="M0 0 C0.33 1.65 0.66 3.3 1 5 C0.4225 4.7525 -0.155 4.505 -0.75 4.25 C-1.4925 4.1675 -2.235 4.085 -3 4 C-5.27144074 5.85432087 -5.27144074 5.85432087 -7 8 C-7.66 7.67 -8.32 7.34 -9 7 C-7.88121617 5.82737096 -6.75476949 4.66204862 -5.625 3.5 C-4.68527344 2.52546875 -4.68527344 2.52546875 -3.7265625 1.53125 C-2 0 -2 0 0 0 Z " fill="#AEE1F7" transform="translate(995,378)"/>
<path d="M0 0 C0.66 0 1.32 0 2 0 C1.44687265 4.02992782 0.8441938 8.02022924 0 12 C-0.33 12 -0.66 12 -1 12 C-1.02687279 10.18757948 -1.04633715 8.37504767 -1.0625 6.5625 C-1.07410156 5.55316406 -1.08570313 4.54382813 -1.09765625 3.50390625 C-1 1 -1 1 0 0 Z " fill="#A8DCF5" transform="translate(351,293)"/>
<path d="M0 0 C0.33 0 0.66 0 1 0 C1.36923077 7.50769231 1.36923077 7.50769231 -0.5 10 C-0.995 10.33 -1.49 10.66 -2 11 C-3 9 -3 9 -2.44140625 6.8359375 C-2.15136719 6.02382812 -1.86132812 5.21171875 -1.5625 4.375 C-1.27503906 3.55773437 -0.98757812 2.74046875 -0.69140625 1.8984375 C-0.46324219 1.27195313 -0.23507813 0.64546875 0 0 Z " fill="#59A6DF" transform="translate(198,245)"/>
<path d="M0 0 C0.99 0 1.98 0 3 0 C3.66 3.3 4.32 6.6 5 10 C4.34 9.34 3.68 8.68 3 8 C3 7.01 3 6.02 3 5 C2.01 4.67 1.02 4.34 0 4 C0 2.68 0 1.36 0 0 Z " fill="#3AA2DF" transform="translate(1083,367)"/>
<path d="M0 0 C1.43836751 0.11458693 2.87570966 0.24209116 4.3125 0.375 C5.51326172 0.47941406 5.51326172 0.47941406 6.73828125 0.5859375 C9 1 9 1 12 3 C11.67 3.99 11.34 4.98 11 6 C10.484375 5.54625 9.96875 5.0925 9.4375 4.625 C6.42699426 2.61799617 3.49072763 1.87268191 0 1 C0 0.67 0 0.34 0 0 Z " fill="#B4E4F6" transform="translate(993,291)"/>
<path d="M0 0 C0.33 0 0.66 0 1 0 C0.88590407 1.45922693 0.75834456 2.91740598 0.625 4.375 C0.55539063 5.18710937 0.48578125 5.99921875 0.4140625 6.8359375 C0 9 0 9 -2 11 C-2.28571429 3.57142857 -2.28571429 3.57142857 0 0 Z " fill="#E5F5FA" transform="translate(207,266)"/>
<path d="M0 0 C3.78383679 0.92493788 5.56693694 1.39371171 7.875 4.625 C8.431875 5.800625 8.431875 5.800625 9 7 C5.07353523 5.69117841 2.72225079 4.1255472 0 1 C0 0.67 0 0.34 0 0 Z " fill="#4CA9DF" transform="translate(404,265)"/>
<path d="M0 0 C-3.1254959 2.64465038 -6.08788267 3.84414715 -10 5 C-10.33 4.01 -10.66 3.02 -11 2 C-7.17679443 0.57741188 -4.08718695 -0.24042276 0 0 Z " fill="#D5F0FA" transform="translate(229,209)"/>
<path d="M0 0 C4.38889325 0.66498383 7.9811485 2.18757677 12 4 C9.5332355 4.88336837 8.36140628 5.1312406 5.859375 4.22265625 C5.16328125 3.83980469 4.4671875 3.45695312 3.75 3.0625 C3.04359375 2.68222656 2.3371875 2.30195313 1.609375 1.91015625 C1.07828125 1.60980469 0.5471875 1.30945313 0 1 C0 0.67 0 0.34 0 0 Z " fill="#53AFE1" transform="translate(370,384)"/>
<path d="M0 0 C-5.75 4 -5.75 4 -8 4 C-8 3.01 -8 2.02 -8 1 C-4.93251126 -0.86240388 -3.40254489 -1.2151946 0 0 Z " fill="#DDF3FA" transform="translate(263,376)"/>
<path d="M0 0 C0.66 0 1.32 0 2 0 C5.125 6.625 5.125 6.625 4 10 C0 4.5 0 4.5 0 0 Z " fill="#2C98DE" transform="translate(355,363)"/>
<path d="M0 0 C-1.28610235 2.5722047 -2.33393981 3.00974907 -5 4 C-7.25 3.625 -7.25 3.625 -9 3 C-6.38997624 -0.48003168 -4.1689578 -0.27793052 0 0 Z " fill="#44A7E0" transform="translate(969,333)"/>
<path d="M0 0 C1.27875 -0.061875 2.5575 -0.12375 3.875 -0.1875 C4.95394531 -0.23970703 4.95394531 -0.23970703 6.0546875 -0.29296875 C6.69664062 -0.19628906 7.33859375 -0.09960938 8 0 C8.66 0.99 9.32 1.98 10 3 C6.7 2.67 3.4 2.34 0 2 C0 1.34 0 0.68 0 0 Z " fill="#C4EEFA" transform="translate(591,317)"/>
<path d="M0 0 C0 3.38023517 -0.87455622 5.83468937 -2 9 C-2.99 9 -3.98 9 -5 9 C-5 8.34 -5 7.68 -5 7 C-4.34 7 -3.68 7 -3 7 C-2.87625 6.21625 -2.7525 5.4325 -2.625 4.625 C-2 2 -2 2 0 0 Z " fill="#5FA9E0" transform="translate(211,223)"/>
<path d="M0 0 C0.75 1.75 0.75 1.75 1 4 C-0.9375 6.25 -0.9375 6.25 -3 8 C-3.66 7.67 -4.32 7.34 -5 7 C-1.125 1.125 -1.125 1.125 0 0 Z " fill="#D7EBF8" transform="translate(265,378)"/>
<path d="M0 0 C2.875 0.6875 2.875 0.6875 6 2 C7.375 4.625 7.375 4.625 8 7 C4.2047869 5.50902342 2.38957269 3.24299151 0 0 Z " fill="#1D91DE" transform="translate(762,378)"/>
<path d="M0 0 C2.96404505 2.80804268 5.44499019 5.18315774 7 9 C4.0625 7.875 4.0625 7.875 1 6 C0.125 2.8125 0.125 2.8125 0 0 Z " fill="#385B80" transform="translate(229,310)"/>
<path d="M0 0 C0.66 0 1.32 0 2 0 C1.67 2.31 1.34 4.62 1 7 C0.01 7 -0.98 7 -2 7 C-1.34 4.69 -0.68 2.38 0 0 Z " fill="#E7F4F7" transform="translate(214,247)"/>
<path d="M0 0 C3.465 1.485 3.465 1.485 7 3 C7 3.99 7 4.98 7 6 C2.32307692 4.52307692 2.32307692 4.52307692 0.6875 1.875 C0.460625 1.25625 0.23375 0.6375 0 0 Z " fill="#57B1E5" transform="translate(878,377)"/>
<path d="M0 0 C3.12270126 2.51830747 3.94523098 3.7261549 4.75 7.75 C4.8325 8.8225 4.915 9.895 5 11 C4.34 10.67 3.68 10.34 3 10 C3 8.35 3 6.7 3 5 C2.01 4.67 1.02 4.34 0 4 C0 2.68 0 1.36 0 0 Z " fill="#45A7E0" transform="translate(417,277)"/>
<path d="M0 0 C0.33 0.66 0.66 1.32 1 2 C-0.25 4.5625 -0.25 4.5625 -2 7 C-2.99 7.33 -3.98 7.66 -5 8 C-3.8141763 4.62496331 -2.72426311 2.35277269 0 0 Z " fill="#44A7E2" transform="translate(363,272)"/>
<path d="M0 0 C0.99928333 2.698065 1.03624754 3.88010429 0.1875 6.6875 C-1 9 -1 9 -3 10 C-2.39009109 6.44219804 -1.4216319 3.3171411 0 0 Z " fill="#B6DEF5" transform="translate(212,248)"/>
<path d="M0 0 C2.50037734 2.17424117 3.43628586 3.73045798 4 7 C2.68 6.67 1.36 6.34 0 6 C0 4.02 0 2.04 0 0 Z " fill="#496A8E" transform="translate(280,190)"/>
<path d="M0 0 C0.75 1.75 0.75 1.75 1 4 C-0.9375 6.25 -0.9375 6.25 -3 8 C-2.45276317 4.62537285 -1.9451 2.91765 0 0 Z " fill="#4AABE4" transform="translate(682,338)"/>
<path d="M0 0 C2.475 0.99 2.475 0.99 5 2 C5 2.99 5 3.98 5 5 C2.69 4.67 0.38 4.34 -2 4 C-1.01 3.34 -0.02 2.68 1 2 C0.67 1.34 0.34 0.68 0 0 Z " fill="#AAD1E7" transform="translate(262,217)"/>
</svg>
